%TF.GenerationSoftware,KiCad,Pcbnew,7.0.1*%
%TF.CreationDate,2023-04-05T17:43:42-07:00*%
%TF.ProjectId,VRSPAD-144,56525350-4144-42d3-9134-342e6b696361,rev?*%
%TF.SameCoordinates,Original*%
%TF.FileFunction,Paste,Top*%
%TF.FilePolarity,Positive*%
%FSLAX46Y46*%
G04 Gerber Fmt 4.6, Leading zero omitted, Abs format (unit mm)*
G04 Created by KiCad (PCBNEW 7.0.1) date 2023-04-05 17:43:42*
%MOMM*%
%LPD*%
G01*
G04 APERTURE LIST*
G04 Aperture macros list*
%AMRoundRect*
0 Rectangle with rounded corners*
0 $1 Rounding radius*
0 $2 $3 $4 $5 $6 $7 $8 $9 X,Y pos of 4 corners*
0 Add a 4 corners polygon primitive as box body*
4,1,4,$2,$3,$4,$5,$6,$7,$8,$9,$2,$3,0*
0 Add four circle primitives for the rounded corners*
1,1,$1+$1,$2,$3*
1,1,$1+$1,$4,$5*
1,1,$1+$1,$6,$7*
1,1,$1+$1,$8,$9*
0 Add four rect primitives between the rounded corners*
20,1,$1+$1,$2,$3,$4,$5,0*
20,1,$1+$1,$4,$5,$6,$7,0*
20,1,$1+$1,$6,$7,$8,$9,0*
20,1,$1+$1,$8,$9,$2,$3,0*%
G04 Aperture macros list end*
%ADD10RoundRect,0.140000X-0.140000X-0.170000X0.140000X-0.170000X0.140000X0.170000X-0.140000X0.170000X0*%
%ADD11RoundRect,0.135000X0.135000X0.185000X-0.135000X0.185000X-0.135000X-0.185000X0.135000X-0.185000X0*%
%ADD12R,0.500000X0.320000*%
%ADD13R,1.600000X0.410000*%
%ADD14RoundRect,0.135000X-0.135000X-0.185000X0.135000X-0.185000X0.135000X0.185000X-0.135000X0.185000X0*%
%ADD15RoundRect,0.100000X-0.100000X0.637500X-0.100000X-0.637500X0.100000X-0.637500X0.100000X0.637500X0*%
%ADD16RoundRect,0.100000X0.100000X-0.637500X0.100000X0.637500X-0.100000X0.637500X-0.100000X-0.637500X0*%
%ADD17RoundRect,0.150000X-0.150000X0.512500X-0.150000X-0.512500X0.150000X-0.512500X0.150000X0.512500X0*%
%ADD18RoundRect,0.237500X0.250000X0.237500X-0.250000X0.237500X-0.250000X-0.237500X0.250000X-0.237500X0*%
%ADD19RoundRect,0.237500X0.237500X-0.250000X0.237500X0.250000X-0.237500X0.250000X-0.237500X-0.250000X0*%
%ADD20RoundRect,0.100000X0.637500X0.100000X-0.637500X0.100000X-0.637500X-0.100000X0.637500X-0.100000X0*%
%ADD21RoundRect,0.225000X-0.225000X-0.250000X0.225000X-0.250000X0.225000X0.250000X-0.225000X0.250000X0*%
%ADD22RoundRect,0.225000X-0.250000X0.225000X-0.250000X-0.225000X0.250000X-0.225000X0.250000X0.225000X0*%
%ADD23RoundRect,0.237500X-0.300000X-0.237500X0.300000X-0.237500X0.300000X0.237500X-0.300000X0.237500X0*%
%ADD24R,2.270000X0.410000*%
%ADD25R,0.430000X2.540000*%
%ADD26R,0.430000X4.700000*%
%ADD27RoundRect,0.237500X0.300000X0.237500X-0.300000X0.237500X-0.300000X-0.237500X0.300000X-0.237500X0*%
%ADD28RoundRect,0.237500X0.237500X-0.300000X0.237500X0.300000X-0.237500X0.300000X-0.237500X-0.300000X0*%
%ADD29RoundRect,0.100000X-0.637500X-0.100000X0.637500X-0.100000X0.637500X0.100000X-0.637500X0.100000X0*%
%ADD30RoundRect,0.300000X-0.300000X0.300000X-0.300000X-0.300000X0.300000X-0.300000X0.300000X0.300000X0*%
%ADD31RoundRect,0.237500X-0.237500X0.300000X-0.237500X-0.300000X0.237500X-0.300000X0.237500X0.300000X0*%
%ADD32RoundRect,0.237500X-0.237500X0.250000X-0.237500X-0.250000X0.237500X-0.250000X0.237500X0.250000X0*%
%ADD33RoundRect,0.237500X-0.250000X-0.237500X0.250000X-0.237500X0.250000X0.237500X-0.250000X0.237500X0*%
%ADD34RoundRect,0.150000X0.150000X-0.512500X0.150000X0.512500X-0.150000X0.512500X-0.150000X-0.512500X0*%
%ADD35RoundRect,0.225000X0.250000X-0.225000X0.250000X0.225000X-0.250000X0.225000X-0.250000X-0.225000X0*%
%ADD36RoundRect,0.250000X-2.050000X-0.300000X2.050000X-0.300000X2.050000X0.300000X-2.050000X0.300000X0*%
%ADD37RoundRect,0.250000X-2.025000X-2.375000X2.025000X-2.375000X2.025000X2.375000X-2.025000X2.375000X0*%
G04 APERTURE END LIST*
D10*
%TO.C,C38*%
X162969000Y33909000D03*
X163929000Y33909000D03*
%TD*%
%TO.C,C118*%
X140617000Y76581000D03*
X141577000Y76581000D03*
%TD*%
D11*
%TO.C,R48*%
X126113000Y53594000D03*
X125093000Y53594000D03*
%TD*%
D12*
%TO.C,CN6*%
X77462000Y36334000D03*
X77462000Y36834000D03*
X77462000Y37334000D03*
X77462000Y37834000D03*
X76462000Y37834000D03*
X76462000Y37334000D03*
X76462000Y36834000D03*
X76462000Y36334000D03*
%TD*%
D13*
%TO.C,U18*%
X108978700Y31813500D03*
X108978700Y31178500D03*
X108978700Y30543500D03*
X108978700Y29908500D03*
X108978700Y29273500D03*
X108978700Y28638500D03*
X108978700Y28003500D03*
X108978700Y27368500D03*
X114287300Y27368500D03*
X114287300Y28003500D03*
X114287300Y28638500D03*
X114287300Y29273500D03*
X114287300Y29908500D03*
X114287300Y30543500D03*
X114287300Y31178500D03*
X114287300Y31813500D03*
%TD*%
%TO.C,U111*%
X153682700Y21145500D03*
X153682700Y20510500D03*
X153682700Y19875500D03*
X153682700Y19240500D03*
X153682700Y18605500D03*
X153682700Y17970500D03*
X153682700Y17335500D03*
X153682700Y16700500D03*
X158991300Y16700500D03*
X158991300Y17335500D03*
X158991300Y17970500D03*
X158991300Y18605500D03*
X158991300Y19240500D03*
X158991300Y19875500D03*
X158991300Y20510500D03*
X158991300Y21145500D03*
%TD*%
D11*
%TO.C,R128*%
X81409000Y21590000D03*
X80389000Y21590000D03*
%TD*%
D13*
%TO.C,U117*%
X131330700Y106489500D03*
X131330700Y105854500D03*
X131330700Y105219500D03*
X131330700Y104584500D03*
X131330700Y103949500D03*
X131330700Y103314500D03*
X131330700Y102679500D03*
X131330700Y102044500D03*
X136639300Y102044500D03*
X136639300Y102679500D03*
X136639300Y103314500D03*
X136639300Y103949500D03*
X136639300Y104584500D03*
X136639300Y105219500D03*
X136639300Y105854500D03*
X136639300Y106489500D03*
%TD*%
D14*
%TO.C,R9*%
X128776000Y32258000D03*
X129796000Y32258000D03*
%TD*%
D15*
%TO.C,U68*%
X151683000Y73220500D03*
X151033000Y73220500D03*
X150383000Y73220500D03*
X149733000Y73220500D03*
X149083000Y73220500D03*
X148433000Y73220500D03*
X147783000Y73220500D03*
X147783000Y67495500D03*
X148433000Y67495500D03*
X149083000Y67495500D03*
X149733000Y67495500D03*
X150383000Y67495500D03*
X151033000Y67495500D03*
X151683000Y67495500D03*
%TD*%
D13*
%TO.C,U102*%
X86626700Y21145500D03*
X86626700Y20510500D03*
X86626700Y19875500D03*
X86626700Y19240500D03*
X86626700Y18605500D03*
X86626700Y17970500D03*
X86626700Y17335500D03*
X86626700Y16700500D03*
X91935300Y16700500D03*
X91935300Y17335500D03*
X91935300Y17970500D03*
X91935300Y18605500D03*
X91935300Y19240500D03*
X91935300Y19875500D03*
X91935300Y20510500D03*
X91935300Y21145500D03*
%TD*%
D11*
%TO.C,R92*%
X126113000Y85598000D03*
X125093000Y85598000D03*
%TD*%
D10*
%TO.C,C153*%
X95913000Y97917000D03*
X96873000Y97917000D03*
%TD*%
D11*
%TO.C,R72*%
X126113000Y74930000D03*
X125093000Y74930000D03*
%TD*%
D16*
%TO.C,U58*%
X116567000Y56827500D03*
X117217000Y56827500D03*
X117867000Y56827500D03*
X118517000Y56827500D03*
X119167000Y56827500D03*
X119817000Y56827500D03*
X120467000Y56827500D03*
X121117000Y56827500D03*
X121767000Y56827500D03*
X122417000Y56827500D03*
X123067000Y56827500D03*
X123717000Y56827500D03*
X123717000Y62552500D03*
X123067000Y62552500D03*
X122417000Y62552500D03*
X121767000Y62552500D03*
X121117000Y62552500D03*
X120467000Y62552500D03*
X119817000Y62552500D03*
X119167000Y62552500D03*
X118517000Y62552500D03*
X117867000Y62552500D03*
X117217000Y62552500D03*
X116567000Y62552500D03*
%TD*%
D10*
%TO.C,C123*%
X118265000Y76581000D03*
X119225000Y76581000D03*
%TD*%
D11*
%TO.C,R16*%
X103761000Y32258000D03*
X102741000Y32258000D03*
%TD*%
D14*
%TO.C,R85*%
X151128000Y74930000D03*
X152148000Y74930000D03*
%TD*%
D16*
%TO.C,U115*%
X116567000Y99499500D03*
X117217000Y99499500D03*
X117867000Y99499500D03*
X118517000Y99499500D03*
X119167000Y99499500D03*
X119817000Y99499500D03*
X120467000Y99499500D03*
X121117000Y99499500D03*
X121767000Y99499500D03*
X122417000Y99499500D03*
X123067000Y99499500D03*
X123717000Y99499500D03*
X123717000Y105224500D03*
X123067000Y105224500D03*
X122417000Y105224500D03*
X121767000Y105224500D03*
X121117000Y105224500D03*
X120467000Y105224500D03*
X119817000Y105224500D03*
X119167000Y105224500D03*
X118517000Y105224500D03*
X117867000Y105224500D03*
X117217000Y105224500D03*
X116567000Y105224500D03*
%TD*%
D14*
%TO.C,R26*%
X151382000Y33782000D03*
X152402000Y33782000D03*
%TD*%
%TO.C,R114*%
X106678000Y87122000D03*
X107698000Y87122000D03*
%TD*%
D11*
%TO.C,R83*%
X148465000Y65786000D03*
X147445000Y65786000D03*
%TD*%
D17*
%TO.C,U13*%
X87945000Y119507000D03*
X86995000Y119507000D03*
X86045000Y119507000D03*
X86045000Y117232000D03*
X87945000Y117232000D03*
%TD*%
D18*
%TO.C,R7*%
X58438500Y92837000D03*
X56613500Y92837000D03*
%TD*%
D11*
%TO.C,R59*%
X126113000Y55118000D03*
X125093000Y55118000D03*
%TD*%
D16*
%TO.C,U40*%
X161271000Y46159500D03*
X161921000Y46159500D03*
X162571000Y46159500D03*
X163221000Y46159500D03*
X163871000Y46159500D03*
X164521000Y46159500D03*
X165171000Y46159500D03*
X165821000Y46159500D03*
X166471000Y46159500D03*
X167121000Y46159500D03*
X167771000Y46159500D03*
X168421000Y46159500D03*
X168421000Y51884500D03*
X167771000Y51884500D03*
X167121000Y51884500D03*
X166471000Y51884500D03*
X165821000Y51884500D03*
X165171000Y51884500D03*
X164521000Y51884500D03*
X163871000Y51884500D03*
X163221000Y51884500D03*
X162571000Y51884500D03*
X161921000Y51884500D03*
X161271000Y51884500D03*
%TD*%
D12*
%TO.C,RN30*%
X73779000Y14998000D03*
X73779000Y15498000D03*
X73779000Y15998000D03*
X73779000Y16498000D03*
X72779000Y16498000D03*
X72779000Y15998000D03*
X72779000Y15498000D03*
X72779000Y14998000D03*
%TD*%
D14*
%TO.C,R134*%
X106678000Y12446000D03*
X107698000Y12446000D03*
%TD*%
D11*
%TO.C,R107*%
X148465000Y87122000D03*
X147445000Y87122000D03*
%TD*%
D12*
%TO.C,RN10*%
X73779000Y47002000D03*
X73779000Y47502000D03*
X73779000Y48002000D03*
X73779000Y48502000D03*
X72779000Y48502000D03*
X72779000Y48002000D03*
X72779000Y47502000D03*
X72779000Y47002000D03*
%TD*%
D10*
%TO.C,C108*%
X162969000Y65913000D03*
X163929000Y65913000D03*
%TD*%
D11*
%TO.C,R55*%
X81409000Y55118000D03*
X80389000Y55118000D03*
%TD*%
%TO.C,R43*%
X148465000Y44450000D03*
X147445000Y44450000D03*
%TD*%
D14*
%TO.C,R130*%
X129030000Y12446000D03*
X130050000Y12446000D03*
%TD*%
%TO.C,R93*%
X128776000Y85598000D03*
X129796000Y85598000D03*
%TD*%
D19*
%TO.C,R3*%
X41838000Y120226500D03*
X41838000Y122051500D03*
%TD*%
D10*
%TO.C,C78*%
X140617000Y55245000D03*
X141577000Y55245000D03*
%TD*%
D13*
%TO.C,U60*%
X131330700Y74485500D03*
X131330700Y73850500D03*
X131330700Y73215500D03*
X131330700Y72580500D03*
X131330700Y71945500D03*
X131330700Y71310500D03*
X131330700Y70675500D03*
X131330700Y70040500D03*
X136639300Y70040500D03*
X136639300Y70675500D03*
X136639300Y71310500D03*
X136639300Y71945500D03*
X136639300Y72580500D03*
X136639300Y73215500D03*
X136639300Y73850500D03*
X136639300Y74485500D03*
%TD*%
D12*
%TO.C,CN23*%
X77716000Y81673000D03*
X77716000Y82173000D03*
X77716000Y82673000D03*
X77716000Y83173000D03*
X76716000Y83173000D03*
X76716000Y82673000D03*
X76716000Y82173000D03*
X76716000Y81673000D03*
%TD*%
D14*
%TO.C,R74*%
X84326000Y65786000D03*
X85346000Y65786000D03*
%TD*%
%TO.C,R57*%
X84072000Y64262000D03*
X85092000Y64262000D03*
%TD*%
D12*
%TO.C,RN15*%
X73779000Y60337000D03*
X73779000Y60837000D03*
X73779000Y61337000D03*
X73779000Y61837000D03*
X72779000Y61837000D03*
X72779000Y61337000D03*
X72779000Y60837000D03*
X72779000Y60337000D03*
%TD*%
D14*
%TO.C,R94*%
X106678000Y76454000D03*
X107698000Y76454000D03*
%TD*%
D12*
%TO.C,RN35*%
X73779000Y103009000D03*
X73779000Y103509000D03*
X73779000Y104009000D03*
X73779000Y104509000D03*
X72779000Y104509000D03*
X72779000Y104009000D03*
X72779000Y103509000D03*
X72779000Y103009000D03*
%TD*%
D13*
%TO.C,U36*%
X108978700Y53149500D03*
X108978700Y52514500D03*
X108978700Y51879500D03*
X108978700Y51244500D03*
X108978700Y50609500D03*
X108978700Y49974500D03*
X108978700Y49339500D03*
X108978700Y48704500D03*
X114287300Y48704500D03*
X114287300Y49339500D03*
X114287300Y49974500D03*
X114287300Y50609500D03*
X114287300Y51244500D03*
X114287300Y51879500D03*
X114287300Y52514500D03*
X114287300Y53149500D03*
%TD*%
D10*
%TO.C,C163*%
X95913000Y12573000D03*
X96873000Y12573000D03*
%TD*%
D14*
%TO.C,R133*%
X128776000Y21590000D03*
X129796000Y21590000D03*
%TD*%
D20*
%TO.C,U119*%
X202125500Y78101000D03*
X202125500Y78751000D03*
X202125500Y79401000D03*
X202125500Y80051000D03*
X202125500Y80701000D03*
X202125500Y81351000D03*
X202125500Y82001000D03*
X202125500Y82651000D03*
X202125500Y83301000D03*
X202125500Y83951000D03*
X196400500Y83951000D03*
X196400500Y83301000D03*
X196400500Y82651000D03*
X196400500Y82001000D03*
X196400500Y81351000D03*
X196400500Y80701000D03*
X196400500Y80051000D03*
X196400500Y79401000D03*
X196400500Y78751000D03*
X196400500Y78101000D03*
%TD*%
D11*
%TO.C,R131*%
X126113000Y12446000D03*
X125093000Y12446000D03*
%TD*%
D12*
%TO.C,CN16*%
X77462000Y63004000D03*
X77462000Y63504000D03*
X77462000Y64004000D03*
X77462000Y64504000D03*
X76462000Y64504000D03*
X76462000Y64004000D03*
X76462000Y63504000D03*
X76462000Y63004000D03*
%TD*%
D14*
%TO.C,R73*%
X128776000Y74930000D03*
X129796000Y74930000D03*
%TD*%
D10*
%TO.C,C138*%
X162969000Y87249000D03*
X163929000Y87249000D03*
%TD*%
D14*
%TO.C,R13*%
X151128000Y32258000D03*
X152148000Y32258000D03*
%TD*%
D12*
%TO.C,RN34*%
X73779000Y100342000D03*
X73779000Y100842000D03*
X73779000Y101342000D03*
X73779000Y101842000D03*
X72779000Y101842000D03*
X72779000Y101342000D03*
X72779000Y100842000D03*
X72779000Y100342000D03*
%TD*%
%TO.C,RN1*%
X73779000Y22999000D03*
X73779000Y23499000D03*
X73779000Y23999000D03*
X73779000Y24499000D03*
X72779000Y24499000D03*
X72779000Y23999000D03*
X72779000Y23499000D03*
X72779000Y22999000D03*
%TD*%
D14*
%TO.C,R118*%
X84326000Y97790000D03*
X85346000Y97790000D03*
%TD*%
D12*
%TO.C,CN29*%
X77462000Y12331000D03*
X77462000Y12831000D03*
X77462000Y13331000D03*
X77462000Y13831000D03*
X76462000Y13831000D03*
X76462000Y13331000D03*
X76462000Y12831000D03*
X76462000Y12331000D03*
%TD*%
D15*
%TO.C,U77*%
X106979000Y83888500D03*
X106329000Y83888500D03*
X105679000Y83888500D03*
X105029000Y83888500D03*
X104379000Y83888500D03*
X103729000Y83888500D03*
X103079000Y83888500D03*
X103079000Y78163500D03*
X103729000Y78163500D03*
X104379000Y78163500D03*
X105029000Y78163500D03*
X105679000Y78163500D03*
X106329000Y78163500D03*
X106979000Y78163500D03*
%TD*%
D12*
%TO.C,RN27*%
X73779000Y92341000D03*
X73779000Y92841000D03*
X73779000Y93341000D03*
X73779000Y93841000D03*
X72779000Y93841000D03*
X72779000Y93341000D03*
X72779000Y92841000D03*
X72779000Y92341000D03*
%TD*%
D11*
%TO.C,R140*%
X148465000Y21590000D03*
X147445000Y21590000D03*
%TD*%
D16*
%TO.C,U73*%
X94215000Y78163500D03*
X94865000Y78163500D03*
X95515000Y78163500D03*
X96165000Y78163500D03*
X96815000Y78163500D03*
X97465000Y78163500D03*
X98115000Y78163500D03*
X98765000Y78163500D03*
X99415000Y78163500D03*
X100065000Y78163500D03*
X100715000Y78163500D03*
X101365000Y78163500D03*
X101365000Y83888500D03*
X100715000Y83888500D03*
X100065000Y83888500D03*
X99415000Y83888500D03*
X98765000Y83888500D03*
X98115000Y83888500D03*
X97465000Y83888500D03*
X96815000Y83888500D03*
X96165000Y83888500D03*
X95515000Y83888500D03*
X94865000Y83888500D03*
X94215000Y83888500D03*
%TD*%
D10*
%TO.C,C88*%
X118265000Y55245000D03*
X119225000Y55245000D03*
%TD*%
D21*
%TO.C,C193*%
X198615000Y57150000D03*
X200165000Y57150000D03*
%TD*%
D12*
%TO.C,RN4*%
X73779000Y31000000D03*
X73779000Y31500000D03*
X73779000Y32000000D03*
X73779000Y32500000D03*
X72779000Y32500000D03*
X72779000Y32000000D03*
X72779000Y31500000D03*
X72779000Y31000000D03*
%TD*%
D14*
%TO.C,R41*%
X106424000Y53594000D03*
X107444000Y53594000D03*
%TD*%
D10*
%TO.C,C93*%
X140617000Y65913000D03*
X141577000Y65913000D03*
%TD*%
D14*
%TO.C,R149*%
X128776000Y106934000D03*
X129796000Y106934000D03*
%TD*%
D15*
%TO.C,U95*%
X84627000Y105224500D03*
X83977000Y105224500D03*
X83327000Y105224500D03*
X82677000Y105224500D03*
X82027000Y105224500D03*
X81377000Y105224500D03*
X80727000Y105224500D03*
X80727000Y99499500D03*
X81377000Y99499500D03*
X82027000Y99499500D03*
X82677000Y99499500D03*
X83327000Y99499500D03*
X83977000Y99499500D03*
X84627000Y99499500D03*
%TD*%
D12*
%TO.C,RN7*%
X73779000Y39001000D03*
X73779000Y39501000D03*
X73779000Y40001000D03*
X73779000Y40501000D03*
X72779000Y40501000D03*
X72779000Y40001000D03*
X72779000Y39501000D03*
X72779000Y39001000D03*
%TD*%
D15*
%TO.C,U56*%
X106979000Y62552500D03*
X106329000Y62552500D03*
X105679000Y62552500D03*
X105029000Y62552500D03*
X104379000Y62552500D03*
X103729000Y62552500D03*
X103079000Y62552500D03*
X103079000Y56827500D03*
X103729000Y56827500D03*
X104379000Y56827500D03*
X105029000Y56827500D03*
X105679000Y56827500D03*
X106329000Y56827500D03*
X106979000Y56827500D03*
%TD*%
D14*
%TO.C,R61*%
X128776000Y64262000D03*
X129796000Y64262000D03*
%TD*%
D12*
%TO.C,CN12*%
X77462000Y52336000D03*
X77462000Y52836000D03*
X77462000Y53336000D03*
X77462000Y53836000D03*
X76462000Y53836000D03*
X76462000Y53336000D03*
X76462000Y52836000D03*
X76462000Y52336000D03*
%TD*%
D13*
%TO.C,U114*%
X108978700Y106489500D03*
X108978700Y105854500D03*
X108978700Y105219500D03*
X108978700Y104584500D03*
X108978700Y103949500D03*
X108978700Y103314500D03*
X108978700Y102679500D03*
X108978700Y102044500D03*
X114287300Y102044500D03*
X114287300Y102679500D03*
X114287300Y103314500D03*
X114287300Y103949500D03*
X114287300Y104584500D03*
X114287300Y105219500D03*
X114287300Y105854500D03*
X114287300Y106489500D03*
%TD*%
D16*
%TO.C,U52*%
X138919000Y56827500D03*
X139569000Y56827500D03*
X140219000Y56827500D03*
X140869000Y56827500D03*
X141519000Y56827500D03*
X142169000Y56827500D03*
X142819000Y56827500D03*
X143469000Y56827500D03*
X144119000Y56827500D03*
X144769000Y56827500D03*
X145419000Y56827500D03*
X146069000Y56827500D03*
X146069000Y62552500D03*
X145419000Y62552500D03*
X144769000Y62552500D03*
X144119000Y62552500D03*
X143469000Y62552500D03*
X142819000Y62552500D03*
X142169000Y62552500D03*
X141519000Y62552500D03*
X140869000Y62552500D03*
X140219000Y62552500D03*
X139569000Y62552500D03*
X138919000Y62552500D03*
%TD*%
D11*
%TO.C,R135*%
X103761000Y12446000D03*
X102741000Y12446000D03*
%TD*%
D13*
%TO.C,U96*%
X86626700Y106489500D03*
X86626700Y105854500D03*
X86626700Y105219500D03*
X86626700Y104584500D03*
X86626700Y103949500D03*
X86626700Y103314500D03*
X86626700Y102679500D03*
X86626700Y102044500D03*
X91935300Y102044500D03*
X91935300Y102679500D03*
X91935300Y103314500D03*
X91935300Y103949500D03*
X91935300Y104584500D03*
X91935300Y105219500D03*
X91935300Y105854500D03*
X91935300Y106489500D03*
%TD*%
D12*
%TO.C,RN13*%
X73779000Y55003000D03*
X73779000Y55503000D03*
X73779000Y56003000D03*
X73779000Y56503000D03*
X72779000Y56503000D03*
X72779000Y56003000D03*
X72779000Y55503000D03*
X72779000Y55003000D03*
%TD*%
%TO.C,CN34*%
X77462000Y100342000D03*
X77462000Y100842000D03*
X77462000Y101342000D03*
X77462000Y101842000D03*
X76462000Y101842000D03*
X76462000Y101342000D03*
X76462000Y100842000D03*
X76462000Y100342000D03*
%TD*%
D14*
%TO.C,R42*%
X151382000Y44450000D03*
X152402000Y44450000D03*
%TD*%
D11*
%TO.C,R52*%
X81409000Y53594000D03*
X80389000Y53594000D03*
%TD*%
D14*
%TO.C,R81*%
X106424000Y74930000D03*
X107444000Y74930000D03*
%TD*%
D11*
%TO.C,R147*%
X126113000Y97790000D03*
X125093000Y97790000D03*
%TD*%
D12*
%TO.C,RN28*%
X73779000Y95008000D03*
X73779000Y95508000D03*
X73779000Y96008000D03*
X73779000Y96508000D03*
X72779000Y96508000D03*
X72779000Y96008000D03*
X72779000Y95508000D03*
X72779000Y95008000D03*
%TD*%
D16*
%TO.C,U109*%
X116567000Y14155500D03*
X117217000Y14155500D03*
X117867000Y14155500D03*
X118517000Y14155500D03*
X119167000Y14155500D03*
X119817000Y14155500D03*
X120467000Y14155500D03*
X121117000Y14155500D03*
X121767000Y14155500D03*
X122417000Y14155500D03*
X123067000Y14155500D03*
X123717000Y14155500D03*
X123717000Y19880500D03*
X123067000Y19880500D03*
X122417000Y19880500D03*
X121767000Y19880500D03*
X121117000Y19880500D03*
X120467000Y19880500D03*
X119817000Y19880500D03*
X119167000Y19880500D03*
X118517000Y19880500D03*
X117867000Y19880500D03*
X117217000Y19880500D03*
X116567000Y19880500D03*
%TD*%
D14*
%TO.C,R122*%
X151382000Y97790000D03*
X152402000Y97790000D03*
%TD*%
D12*
%TO.C,RN18*%
X73779000Y68338000D03*
X73779000Y68838000D03*
X73779000Y69338000D03*
X73779000Y69838000D03*
X72779000Y69838000D03*
X72779000Y69338000D03*
X72779000Y68838000D03*
X72779000Y68338000D03*
%TD*%
%TO.C,CN21*%
X77462000Y76339000D03*
X77462000Y76839000D03*
X77462000Y77339000D03*
X77462000Y77839000D03*
X76462000Y77839000D03*
X76462000Y77339000D03*
X76462000Y76839000D03*
X76462000Y76339000D03*
%TD*%
%TO.C,CN5*%
X77462000Y33667000D03*
X77462000Y34167000D03*
X77462000Y34667000D03*
X77462000Y35167000D03*
X76462000Y35167000D03*
X76462000Y34667000D03*
X76462000Y34167000D03*
X76462000Y33667000D03*
%TD*%
D15*
%TO.C,U62*%
X84627000Y73220500D03*
X83977000Y73220500D03*
X83327000Y73220500D03*
X82677000Y73220500D03*
X82027000Y73220500D03*
X81377000Y73220500D03*
X80727000Y73220500D03*
X80727000Y67495500D03*
X81377000Y67495500D03*
X82027000Y67495500D03*
X82677000Y67495500D03*
X83327000Y67495500D03*
X83977000Y67495500D03*
X84627000Y67495500D03*
%TD*%
D12*
%TO.C,CN11*%
X77716000Y49669000D03*
X77716000Y50169000D03*
X77716000Y50669000D03*
X77716000Y51169000D03*
X76716000Y51169000D03*
X76716000Y50669000D03*
X76716000Y50169000D03*
X76716000Y49669000D03*
%TD*%
%TO.C,CN10*%
X77462000Y47002000D03*
X77462000Y47502000D03*
X77462000Y48002000D03*
X77462000Y48502000D03*
X76462000Y48502000D03*
X76462000Y48002000D03*
X76462000Y47502000D03*
X76462000Y47002000D03*
%TD*%
D15*
%TO.C,U74*%
X129331000Y83888500D03*
X128681000Y83888500D03*
X128031000Y83888500D03*
X127381000Y83888500D03*
X126731000Y83888500D03*
X126081000Y83888500D03*
X125431000Y83888500D03*
X125431000Y78163500D03*
X126081000Y78163500D03*
X126731000Y78163500D03*
X127381000Y78163500D03*
X128031000Y78163500D03*
X128681000Y78163500D03*
X129331000Y78163500D03*
%TD*%
D11*
%TO.C,R27*%
X148465000Y33782000D03*
X147445000Y33782000D03*
%TD*%
D13*
%TO.C,U87*%
X153682700Y95821500D03*
X153682700Y95186500D03*
X153682700Y94551500D03*
X153682700Y93916500D03*
X153682700Y93281500D03*
X153682700Y92646500D03*
X153682700Y92011500D03*
X153682700Y91376500D03*
X158991300Y91376500D03*
X158991300Y92011500D03*
X158991300Y92646500D03*
X158991300Y93281500D03*
X158991300Y93916500D03*
X158991300Y94551500D03*
X158991300Y95186500D03*
X158991300Y95821500D03*
%TD*%
D14*
%TO.C,R145*%
X106424000Y106934000D03*
X107444000Y106934000D03*
%TD*%
D10*
%TO.C,C33*%
X95913000Y33909000D03*
X96873000Y33909000D03*
%TD*%
D11*
%TO.C,R124*%
X148465000Y106934000D03*
X147445000Y106934000D03*
%TD*%
%TO.C,R112*%
X126113000Y96266000D03*
X125093000Y96266000D03*
%TD*%
D10*
%TO.C,C148*%
X118265000Y87249000D03*
X119225000Y87249000D03*
%TD*%
D12*
%TO.C,CN22*%
X77462000Y79006000D03*
X77462000Y79506000D03*
X77462000Y80006000D03*
X77462000Y80506000D03*
X76462000Y80506000D03*
X76462000Y80006000D03*
X76462000Y79506000D03*
X76462000Y79006000D03*
%TD*%
%TO.C,RN22*%
X73779000Y79006000D03*
X73779000Y79506000D03*
X73779000Y80006000D03*
X73779000Y80506000D03*
X72779000Y80506000D03*
X72779000Y80006000D03*
X72779000Y79506000D03*
X72779000Y79006000D03*
%TD*%
D10*
%TO.C,C53*%
X118265000Y44577000D03*
X119225000Y44577000D03*
%TD*%
D12*
%TO.C,RN25*%
X73779000Y87007000D03*
X73779000Y87507000D03*
X73779000Y88007000D03*
X73779000Y88507000D03*
X72779000Y88507000D03*
X72779000Y88007000D03*
X72779000Y87507000D03*
X72779000Y87007000D03*
%TD*%
%TO.C,RN14*%
X73779000Y57670000D03*
X73779000Y58170000D03*
X73779000Y58670000D03*
X73779000Y59170000D03*
X72779000Y59170000D03*
X72779000Y58670000D03*
X72779000Y58170000D03*
X72779000Y57670000D03*
%TD*%
D22*
%TO.C,C198*%
X23114000Y25540000D03*
X23114000Y23990000D03*
%TD*%
D10*
%TO.C,C133*%
X95913000Y87249000D03*
X96873000Y87249000D03*
%TD*%
D11*
%TO.C,R91*%
X126113000Y76454000D03*
X125093000Y76454000D03*
%TD*%
D10*
%TO.C,C48*%
X140617000Y33909000D03*
X141577000Y33909000D03*
%TD*%
D14*
%TO.C,R30*%
X106678000Y33782000D03*
X107698000Y33782000D03*
%TD*%
%TO.C,R77*%
X84072000Y74930000D03*
X85092000Y74930000D03*
%TD*%
D11*
%TO.C,R127*%
X81409000Y12446000D03*
X80389000Y12446000D03*
%TD*%
D14*
%TO.C,R98*%
X151382000Y76454000D03*
X152402000Y76454000D03*
%TD*%
%TO.C,R34*%
X129030000Y33782000D03*
X130050000Y33782000D03*
%TD*%
D12*
%TO.C,CN32*%
X77462000Y20332000D03*
X77462000Y20832000D03*
X77462000Y21332000D03*
X77462000Y21832000D03*
X76462000Y21832000D03*
X76462000Y21332000D03*
X76462000Y20832000D03*
X76462000Y20332000D03*
%TD*%
D14*
%TO.C,R65*%
X151128000Y64262000D03*
X152148000Y64262000D03*
%TD*%
D16*
%TO.C,U55*%
X161271000Y56827500D03*
X161921000Y56827500D03*
X162571000Y56827500D03*
X163221000Y56827500D03*
X163871000Y56827500D03*
X164521000Y56827500D03*
X165171000Y56827500D03*
X165821000Y56827500D03*
X166471000Y56827500D03*
X167121000Y56827500D03*
X167771000Y56827500D03*
X168421000Y56827500D03*
X168421000Y62552500D03*
X167771000Y62552500D03*
X167121000Y62552500D03*
X166471000Y62552500D03*
X165821000Y62552500D03*
X165171000Y62552500D03*
X164521000Y62552500D03*
X163871000Y62552500D03*
X163221000Y62552500D03*
X162571000Y62552500D03*
X161921000Y62552500D03*
X161271000Y62552500D03*
%TD*%
D10*
%TO.C,C58*%
X162969000Y44577000D03*
X163929000Y44577000D03*
%TD*%
D11*
%TO.C,R15*%
X103761000Y23114000D03*
X102741000Y23114000D03*
%TD*%
%TO.C,R67*%
X103761000Y55118000D03*
X102741000Y55118000D03*
%TD*%
D15*
%TO.C,U20*%
X84627000Y30548500D03*
X83977000Y30548500D03*
X83327000Y30548500D03*
X82677000Y30548500D03*
X82027000Y30548500D03*
X81377000Y30548500D03*
X80727000Y30548500D03*
X80727000Y24823500D03*
X81377000Y24823500D03*
X82027000Y24823500D03*
X82677000Y24823500D03*
X83327000Y24823500D03*
X83977000Y24823500D03*
X84627000Y24823500D03*
%TD*%
%TO.C,U41*%
X129331000Y51884500D03*
X128681000Y51884500D03*
X128031000Y51884500D03*
X127381000Y51884500D03*
X126731000Y51884500D03*
X126081000Y51884500D03*
X125431000Y51884500D03*
X125431000Y46159500D03*
X126081000Y46159500D03*
X126731000Y46159500D03*
X127381000Y46159500D03*
X128031000Y46159500D03*
X128681000Y46159500D03*
X129331000Y46159500D03*
%TD*%
D12*
%TO.C,CN4*%
X77462000Y31000000D03*
X77462000Y31500000D03*
X77462000Y32000000D03*
X77462000Y32500000D03*
X76462000Y32500000D03*
X76462000Y32000000D03*
X76462000Y31500000D03*
X76462000Y31000000D03*
%TD*%
D13*
%TO.C,U93*%
X108978700Y95821500D03*
X108978700Y95186500D03*
X108978700Y94551500D03*
X108978700Y93916500D03*
X108978700Y93281500D03*
X108978700Y92646500D03*
X108978700Y92011500D03*
X108978700Y91376500D03*
X114287300Y91376500D03*
X114287300Y92011500D03*
X114287300Y92646500D03*
X114287300Y93281500D03*
X114287300Y93916500D03*
X114287300Y94551500D03*
X114287300Y95186500D03*
X114287300Y95821500D03*
%TD*%
D14*
%TO.C,R97*%
X106424000Y85598000D03*
X107444000Y85598000D03*
%TD*%
D23*
%TO.C,C11*%
X45365500Y96012000D03*
X47090500Y96012000D03*
%TD*%
D14*
%TO.C,R109*%
X151128000Y96266000D03*
X152148000Y96266000D03*
%TD*%
D11*
%TO.C,R2*%
X126113000Y23114000D03*
X125093000Y23114000D03*
%TD*%
D13*
%TO.C,U75*%
X131330700Y85153500D03*
X131330700Y84518500D03*
X131330700Y83883500D03*
X131330700Y83248500D03*
X131330700Y82613500D03*
X131330700Y81978500D03*
X131330700Y81343500D03*
X131330700Y80708500D03*
X136639300Y80708500D03*
X136639300Y81343500D03*
X136639300Y81978500D03*
X136639300Y82613500D03*
X136639300Y83248500D03*
X136639300Y83883500D03*
X136639300Y84518500D03*
X136639300Y85153500D03*
%TD*%
D12*
%TO.C,RN17*%
X73779000Y65671000D03*
X73779000Y66171000D03*
X73779000Y66671000D03*
X73779000Y67171000D03*
X72779000Y67171000D03*
X72779000Y66671000D03*
X72779000Y66171000D03*
X72779000Y65671000D03*
%TD*%
D14*
%TO.C,R78*%
X106678000Y65786000D03*
X107698000Y65786000D03*
%TD*%
D16*
%TO.C,U124*%
X195957000Y36380500D03*
X196607000Y36380500D03*
X197257000Y36380500D03*
X197907000Y36380500D03*
X198557000Y36380500D03*
X199207000Y36380500D03*
X199857000Y36380500D03*
X200507000Y36380500D03*
X201157000Y36380500D03*
X201807000Y36380500D03*
X201807000Y42105500D03*
X201157000Y42105500D03*
X200507000Y42105500D03*
X199857000Y42105500D03*
X199207000Y42105500D03*
X198557000Y42105500D03*
X197907000Y42105500D03*
X197257000Y42105500D03*
X196607000Y42105500D03*
X195957000Y42105500D03*
%TD*%
D11*
%TO.C,R99*%
X148465000Y76454000D03*
X147445000Y76454000D03*
%TD*%
D16*
%TO.C,U82*%
X161271000Y78163500D03*
X161921000Y78163500D03*
X162571000Y78163500D03*
X163221000Y78163500D03*
X163871000Y78163500D03*
X164521000Y78163500D03*
X165171000Y78163500D03*
X165821000Y78163500D03*
X166471000Y78163500D03*
X167121000Y78163500D03*
X167771000Y78163500D03*
X168421000Y78163500D03*
X168421000Y83888500D03*
X167771000Y83888500D03*
X167121000Y83888500D03*
X166471000Y83888500D03*
X165821000Y83888500D03*
X165171000Y83888500D03*
X164521000Y83888500D03*
X163871000Y83888500D03*
X163221000Y83888500D03*
X162571000Y83888500D03*
X161921000Y83888500D03*
X161271000Y83888500D03*
%TD*%
D15*
%TO.C,U98*%
X151683000Y105224500D03*
X151033000Y105224500D03*
X150383000Y105224500D03*
X149733000Y105224500D03*
X149083000Y105224500D03*
X148433000Y105224500D03*
X147783000Y105224500D03*
X147783000Y99499500D03*
X148433000Y99499500D03*
X149083000Y99499500D03*
X149733000Y99499500D03*
X150383000Y99499500D03*
X151033000Y99499500D03*
X151683000Y99499500D03*
%TD*%
D24*
%TO.C,J8*%
X51722000Y63828000D03*
X57452000Y63828000D03*
X51722000Y63028000D03*
X57452000Y63028000D03*
X51722000Y62228000D03*
X57452000Y62228000D03*
X51722000Y61428000D03*
X57452000Y61428000D03*
X51722000Y60628000D03*
X57452000Y60628000D03*
X51722000Y59828000D03*
X57452000Y59828000D03*
X51722000Y59028000D03*
X57452000Y59028000D03*
X51722000Y58228000D03*
X57452000Y58228000D03*
X51722000Y57428000D03*
X57452000Y57428000D03*
X51722000Y56628000D03*
X57452000Y56628000D03*
X51722000Y55828000D03*
X57452000Y55828000D03*
X51722000Y55028000D03*
X57452000Y55028000D03*
X51722000Y54228000D03*
X57452000Y54228000D03*
X51722000Y53428000D03*
X57452000Y53428000D03*
X51722000Y52628000D03*
X57452000Y52628000D03*
X51722000Y51828000D03*
X57452000Y51828000D03*
X51722000Y51028000D03*
X57452000Y51028000D03*
X51722000Y50228000D03*
X57452000Y50228000D03*
X51722000Y49428000D03*
X57452000Y49428000D03*
X51722000Y48628000D03*
X57452000Y48628000D03*
X51722000Y43828000D03*
X57452000Y43828000D03*
X51722000Y43028000D03*
X57452000Y43028000D03*
X51722000Y42228000D03*
X57452000Y42228000D03*
X51722000Y41428000D03*
X57452000Y41428000D03*
X51722000Y40628000D03*
X57452000Y40628000D03*
X51722000Y39828000D03*
X57452000Y39828000D03*
X51722000Y39028000D03*
X57452000Y39028000D03*
X51722000Y38228000D03*
X57452000Y38228000D03*
X51722000Y37428000D03*
X57452000Y37428000D03*
X51722000Y36628000D03*
X57452000Y36628000D03*
X51722000Y35828000D03*
X57452000Y35828000D03*
X51722000Y35028000D03*
X57452000Y35028000D03*
X51722000Y34228000D03*
X57452000Y34228000D03*
X51722000Y33428000D03*
X57452000Y33428000D03*
X51722000Y32628000D03*
X57452000Y32628000D03*
X51722000Y31828000D03*
X57452000Y31828000D03*
X51722000Y31028000D03*
X57452000Y31028000D03*
X51722000Y30228000D03*
X57452000Y30228000D03*
X51722000Y29428000D03*
X57452000Y29428000D03*
X51722000Y28628000D03*
X57452000Y28628000D03*
D25*
X54587000Y64293000D03*
D26*
X54587000Y59403000D03*
X54587000Y53053000D03*
D25*
X54587000Y48163000D03*
X54587000Y44293000D03*
D26*
X54587000Y39403000D03*
X54587000Y33053000D03*
D25*
X54587000Y28163000D03*
%TD*%
D27*
%TO.C,C18*%
X89127500Y121671500D03*
X87402500Y121671500D03*
%TD*%
D14*
%TO.C,R50*%
X84326000Y44450000D03*
X85346000Y44450000D03*
%TD*%
D11*
%TO.C,R39*%
X103761000Y44450000D03*
X102741000Y44450000D03*
%TD*%
D15*
%TO.C,U23*%
X84627000Y41216500D03*
X83977000Y41216500D03*
X83327000Y41216500D03*
X82677000Y41216500D03*
X82027000Y41216500D03*
X81377000Y41216500D03*
X80727000Y41216500D03*
X80727000Y35491500D03*
X81377000Y35491500D03*
X82027000Y35491500D03*
X82677000Y35491500D03*
X83327000Y35491500D03*
X83977000Y35491500D03*
X84627000Y35491500D03*
%TD*%
D12*
%TO.C,CN2*%
X77462000Y25666000D03*
X77462000Y26166000D03*
X77462000Y26666000D03*
X77462000Y27166000D03*
X76462000Y27166000D03*
X76462000Y26666000D03*
X76462000Y26166000D03*
X76462000Y25666000D03*
%TD*%
D14*
%TO.C,R62*%
X151382000Y55118000D03*
X152402000Y55118000D03*
%TD*%
%TO.C,R137*%
X106424000Y21590000D03*
X107444000Y21590000D03*
%TD*%
D12*
%TO.C,CN26*%
X77462000Y89674000D03*
X77462000Y90174000D03*
X77462000Y90674000D03*
X77462000Y91174000D03*
X76462000Y91174000D03*
X76462000Y90674000D03*
X76462000Y90174000D03*
X76462000Y89674000D03*
%TD*%
D11*
%TO.C,R68*%
X103761000Y64262000D03*
X102741000Y64262000D03*
%TD*%
D28*
%TO.C,C15*%
X60320000Y88799500D03*
X60320000Y90524500D03*
%TD*%
D12*
%TO.C,CN36*%
X77462000Y105676000D03*
X77462000Y106176000D03*
X77462000Y106676000D03*
X77462000Y107176000D03*
X76462000Y107176000D03*
X76462000Y106676000D03*
X76462000Y106176000D03*
X76462000Y105676000D03*
%TD*%
D11*
%TO.C,R119*%
X81409000Y97790000D03*
X80389000Y97790000D03*
%TD*%
D10*
%TO.C,C98*%
X95913000Y65913000D03*
X96873000Y65913000D03*
%TD*%
D11*
%TO.C,R84*%
X148465000Y74930000D03*
X147445000Y74930000D03*
%TD*%
D14*
%TO.C,R45*%
X151128000Y53594000D03*
X152148000Y53594000D03*
%TD*%
D12*
%TO.C,RN12*%
X73779000Y52336000D03*
X73779000Y52836000D03*
X73779000Y53336000D03*
X73779000Y53836000D03*
X72779000Y53836000D03*
X72779000Y53336000D03*
X72779000Y52836000D03*
X72779000Y52336000D03*
%TD*%
D14*
%TO.C,R46*%
X129030000Y44450000D03*
X130050000Y44450000D03*
%TD*%
D12*
%TO.C,CN7*%
X77716000Y39001000D03*
X77716000Y39501000D03*
X77716000Y40001000D03*
X77716000Y40501000D03*
X76716000Y40501000D03*
X76716000Y40001000D03*
X76716000Y39501000D03*
X76716000Y39001000D03*
%TD*%
D13*
%TO.C,U84*%
X86626700Y95821500D03*
X86626700Y95186500D03*
X86626700Y94551500D03*
X86626700Y93916500D03*
X86626700Y93281500D03*
X86626700Y92646500D03*
X86626700Y92011500D03*
X86626700Y91376500D03*
X91935300Y91376500D03*
X91935300Y92011500D03*
X91935300Y92646500D03*
X91935300Y93281500D03*
X91935300Y93916500D03*
X91935300Y94551500D03*
X91935300Y95186500D03*
X91935300Y95821500D03*
%TD*%
D12*
%TO.C,CN17*%
X77462000Y65671000D03*
X77462000Y66171000D03*
X77462000Y66671000D03*
X77462000Y67171000D03*
X76462000Y67171000D03*
X76462000Y66671000D03*
X76462000Y66171000D03*
X76462000Y65671000D03*
%TD*%
D14*
%TO.C,R113*%
X128776000Y96266000D03*
X129796000Y96266000D03*
%TD*%
D16*
%TO.C,U11*%
X138919000Y24823500D03*
X139569000Y24823500D03*
X140219000Y24823500D03*
X140869000Y24823500D03*
X141519000Y24823500D03*
X142169000Y24823500D03*
X142819000Y24823500D03*
X143469000Y24823500D03*
X144119000Y24823500D03*
X144769000Y24823500D03*
X145419000Y24823500D03*
X146069000Y24823500D03*
X146069000Y30548500D03*
X145419000Y30548500D03*
X144769000Y30548500D03*
X144119000Y30548500D03*
X143469000Y30548500D03*
X142819000Y30548500D03*
X142169000Y30548500D03*
X141519000Y30548500D03*
X140869000Y30548500D03*
X140219000Y30548500D03*
X139569000Y30548500D03*
X138919000Y30548500D03*
%TD*%
D12*
%TO.C,CN15*%
X77716000Y60337000D03*
X77716000Y60837000D03*
X77716000Y61337000D03*
X77716000Y61837000D03*
X76716000Y61837000D03*
X76716000Y61337000D03*
X76716000Y60837000D03*
X76716000Y60337000D03*
%TD*%
D14*
%TO.C,R1*%
X129030000Y23114000D03*
X130050000Y23114000D03*
%TD*%
D16*
%TO.C,U70*%
X161271000Y67495500D03*
X161921000Y67495500D03*
X162571000Y67495500D03*
X163221000Y67495500D03*
X163871000Y67495500D03*
X164521000Y67495500D03*
X165171000Y67495500D03*
X165821000Y67495500D03*
X166471000Y67495500D03*
X167121000Y67495500D03*
X167771000Y67495500D03*
X168421000Y67495500D03*
X168421000Y73220500D03*
X167771000Y73220500D03*
X167121000Y73220500D03*
X166471000Y73220500D03*
X165821000Y73220500D03*
X165171000Y73220500D03*
X164521000Y73220500D03*
X163871000Y73220500D03*
X163221000Y73220500D03*
X162571000Y73220500D03*
X161921000Y73220500D03*
X161271000Y73220500D03*
%TD*%
D11*
%TO.C,R115*%
X103761000Y87122000D03*
X102741000Y87122000D03*
%TD*%
%TO.C,R20*%
X81409000Y32258000D03*
X80389000Y32258000D03*
%TD*%
D29*
%TO.C,U8*%
X43365500Y94365000D03*
X43365500Y93715000D03*
X43365500Y93065000D03*
X43365500Y92415000D03*
X43365500Y91765000D03*
X43365500Y91115000D03*
X43365500Y90465000D03*
X43365500Y89815000D03*
X43365500Y89165000D03*
X43365500Y88515000D03*
X49090500Y88515000D03*
X49090500Y89165000D03*
X49090500Y89815000D03*
X49090500Y90465000D03*
X49090500Y91115000D03*
X49090500Y91765000D03*
X49090500Y92415000D03*
X49090500Y93065000D03*
X49090500Y93715000D03*
X49090500Y94365000D03*
%TD*%
D11*
%TO.C,R60*%
X126113000Y64262000D03*
X125093000Y64262000D03*
%TD*%
D16*
%TO.C,U76*%
X138919000Y78163500D03*
X139569000Y78163500D03*
X140219000Y78163500D03*
X140869000Y78163500D03*
X141519000Y78163500D03*
X142169000Y78163500D03*
X142819000Y78163500D03*
X143469000Y78163500D03*
X144119000Y78163500D03*
X144769000Y78163500D03*
X145419000Y78163500D03*
X146069000Y78163500D03*
X146069000Y83888500D03*
X145419000Y83888500D03*
X144769000Y83888500D03*
X144119000Y83888500D03*
X143469000Y83888500D03*
X142819000Y83888500D03*
X142169000Y83888500D03*
X141519000Y83888500D03*
X140869000Y83888500D03*
X140219000Y83888500D03*
X139569000Y83888500D03*
X138919000Y83888500D03*
%TD*%
%TO.C,U37*%
X116567000Y46159500D03*
X117217000Y46159500D03*
X117867000Y46159500D03*
X118517000Y46159500D03*
X119167000Y46159500D03*
X119817000Y46159500D03*
X120467000Y46159500D03*
X121117000Y46159500D03*
X121767000Y46159500D03*
X122417000Y46159500D03*
X123067000Y46159500D03*
X123717000Y46159500D03*
X123717000Y51884500D03*
X123067000Y51884500D03*
X122417000Y51884500D03*
X121767000Y51884500D03*
X121117000Y51884500D03*
X120467000Y51884500D03*
X119817000Y51884500D03*
X119167000Y51884500D03*
X118517000Y51884500D03*
X117867000Y51884500D03*
X117217000Y51884500D03*
X116567000Y51884500D03*
%TD*%
D13*
%TO.C,U63*%
X86626700Y74485500D03*
X86626700Y73850500D03*
X86626700Y73215500D03*
X86626700Y72580500D03*
X86626700Y71945500D03*
X86626700Y71310500D03*
X86626700Y70675500D03*
X86626700Y70040500D03*
X91935300Y70040500D03*
X91935300Y70675500D03*
X91935300Y71310500D03*
X91935300Y71945500D03*
X91935300Y72580500D03*
X91935300Y73215500D03*
X91935300Y73850500D03*
X91935300Y74485500D03*
%TD*%
D11*
%TO.C,R100*%
X148465000Y85598000D03*
X147445000Y85598000D03*
%TD*%
D15*
%TO.C,U113*%
X106979000Y105224500D03*
X106329000Y105224500D03*
X105679000Y105224500D03*
X105029000Y105224500D03*
X104379000Y105224500D03*
X103729000Y105224500D03*
X103079000Y105224500D03*
X103079000Y99499500D03*
X103729000Y99499500D03*
X104379000Y99499500D03*
X105029000Y99499500D03*
X105679000Y99499500D03*
X106329000Y99499500D03*
X106979000Y99499500D03*
%TD*%
D12*
%TO.C,CN27*%
X77716000Y92341000D03*
X77716000Y92841000D03*
X77716000Y93341000D03*
X77716000Y93841000D03*
X76716000Y93841000D03*
X76716000Y93341000D03*
X76716000Y92841000D03*
X76716000Y92341000D03*
%TD*%
D15*
%TO.C,U50*%
X129331000Y62552500D03*
X128681000Y62552500D03*
X128031000Y62552500D03*
X127381000Y62552500D03*
X126731000Y62552500D03*
X126081000Y62552500D03*
X125431000Y62552500D03*
X125431000Y56827500D03*
X126081000Y56827500D03*
X126731000Y56827500D03*
X127381000Y56827500D03*
X128031000Y56827500D03*
X128681000Y56827500D03*
X129331000Y56827500D03*
%TD*%
%TO.C,U14*%
X151683000Y30548500D03*
X151033000Y30548500D03*
X150383000Y30548500D03*
X149733000Y30548500D03*
X149083000Y30548500D03*
X148433000Y30548500D03*
X147783000Y30548500D03*
X147783000Y24823500D03*
X148433000Y24823500D03*
X149083000Y24823500D03*
X149733000Y24823500D03*
X150383000Y24823500D03*
X151033000Y24823500D03*
X151683000Y24823500D03*
%TD*%
D21*
%TO.C,C191*%
X198742000Y96266000D03*
X200292000Y96266000D03*
%TD*%
D11*
%TO.C,R139*%
X148465000Y12446000D03*
X147445000Y12446000D03*
%TD*%
D12*
%TO.C,RN31*%
X73779000Y17665000D03*
X73779000Y18165000D03*
X73779000Y18665000D03*
X73779000Y19165000D03*
X72779000Y19165000D03*
X72779000Y18665000D03*
X72779000Y18165000D03*
X72779000Y17665000D03*
%TD*%
D14*
%TO.C,R49*%
X128776000Y53594000D03*
X129796000Y53594000D03*
%TD*%
D16*
%TO.C,U88*%
X161271000Y88831500D03*
X161921000Y88831500D03*
X162571000Y88831500D03*
X163221000Y88831500D03*
X163871000Y88831500D03*
X164521000Y88831500D03*
X165171000Y88831500D03*
X165821000Y88831500D03*
X166471000Y88831500D03*
X167121000Y88831500D03*
X167771000Y88831500D03*
X168421000Y88831500D03*
X168421000Y94556500D03*
X167771000Y94556500D03*
X167121000Y94556500D03*
X166471000Y94556500D03*
X165821000Y94556500D03*
X165171000Y94556500D03*
X164521000Y94556500D03*
X163871000Y94556500D03*
X163221000Y94556500D03*
X162571000Y94556500D03*
X161921000Y94556500D03*
X161271000Y94556500D03*
%TD*%
D11*
%TO.C,R12*%
X148465000Y32258000D03*
X147445000Y32258000D03*
%TD*%
D16*
%TO.C,U16*%
X161271000Y24823500D03*
X161921000Y24823500D03*
X162571000Y24823500D03*
X163221000Y24823500D03*
X163871000Y24823500D03*
X164521000Y24823500D03*
X165171000Y24823500D03*
X165821000Y24823500D03*
X166471000Y24823500D03*
X167121000Y24823500D03*
X167771000Y24823500D03*
X168421000Y24823500D03*
X168421000Y30548500D03*
X167771000Y30548500D03*
X167121000Y30548500D03*
X166471000Y30548500D03*
X165821000Y30548500D03*
X165171000Y30548500D03*
X164521000Y30548500D03*
X163871000Y30548500D03*
X163221000Y30548500D03*
X162571000Y30548500D03*
X161921000Y30548500D03*
X161271000Y30548500D03*
%TD*%
%TO.C,U100*%
X161271000Y99499500D03*
X161921000Y99499500D03*
X162571000Y99499500D03*
X163221000Y99499500D03*
X163871000Y99499500D03*
X164521000Y99499500D03*
X165171000Y99499500D03*
X165821000Y99499500D03*
X166471000Y99499500D03*
X167121000Y99499500D03*
X167771000Y99499500D03*
X168421000Y99499500D03*
X168421000Y105224500D03*
X167771000Y105224500D03*
X167121000Y105224500D03*
X166471000Y105224500D03*
X165821000Y105224500D03*
X165171000Y105224500D03*
X164521000Y105224500D03*
X163871000Y105224500D03*
X163221000Y105224500D03*
X162571000Y105224500D03*
X161921000Y105224500D03*
X161271000Y105224500D03*
%TD*%
D14*
%TO.C,R110*%
X129030000Y87122000D03*
X130050000Y87122000D03*
%TD*%
D13*
%TO.C,U81*%
X153682700Y85153500D03*
X153682700Y84518500D03*
X153682700Y83883500D03*
X153682700Y83248500D03*
X153682700Y82613500D03*
X153682700Y81978500D03*
X153682700Y81343500D03*
X153682700Y80708500D03*
X158991300Y80708500D03*
X158991300Y81343500D03*
X158991300Y81978500D03*
X158991300Y82613500D03*
X158991300Y83248500D03*
X158991300Y83883500D03*
X158991300Y84518500D03*
X158991300Y85153500D03*
%TD*%
D14*
%TO.C,R86*%
X84326000Y76454000D03*
X85346000Y76454000D03*
%TD*%
%TO.C,R146*%
X129030000Y97790000D03*
X130050000Y97790000D03*
%TD*%
D12*
%TO.C,RN21*%
X73779000Y76339000D03*
X73779000Y76839000D03*
X73779000Y77339000D03*
X73779000Y77839000D03*
X72779000Y77839000D03*
X72779000Y77339000D03*
X72779000Y76839000D03*
X72779000Y76339000D03*
%TD*%
D10*
%TO.C,C83*%
X162969000Y55245000D03*
X163929000Y55245000D03*
%TD*%
D15*
%TO.C,U89*%
X129331000Y94556500D03*
X128681000Y94556500D03*
X128031000Y94556500D03*
X127381000Y94556500D03*
X126731000Y94556500D03*
X126081000Y94556500D03*
X125431000Y94556500D03*
X125431000Y88831500D03*
X126081000Y88831500D03*
X126731000Y88831500D03*
X127381000Y88831500D03*
X128031000Y88831500D03*
X128681000Y88831500D03*
X129331000Y88831500D03*
%TD*%
D30*
%TO.C,U1*%
X39513000Y82407000D03*
X39513000Y80407000D03*
X41513000Y80407000D03*
X41513000Y82407000D03*
%TD*%
D12*
%TO.C,CN9*%
X77462000Y44335000D03*
X77462000Y44835000D03*
X77462000Y45335000D03*
X77462000Y45835000D03*
X76462000Y45835000D03*
X76462000Y45335000D03*
X76462000Y44835000D03*
X76462000Y44335000D03*
%TD*%
%TO.C,RN24*%
X73779000Y84340000D03*
X73779000Y84840000D03*
X73779000Y85340000D03*
X73779000Y85840000D03*
X72779000Y85840000D03*
X72779000Y85340000D03*
X72779000Y84840000D03*
X72779000Y84340000D03*
%TD*%
D11*
%TO.C,R136*%
X103761000Y21590000D03*
X102741000Y21590000D03*
%TD*%
D14*
%TO.C,R14*%
X106678000Y23114000D03*
X107698000Y23114000D03*
%TD*%
D11*
%TO.C,R75*%
X81409000Y65786000D03*
X80389000Y65786000D03*
%TD*%
D14*
%TO.C,R17*%
X106424000Y32258000D03*
X107444000Y32258000D03*
%TD*%
D10*
%TO.C,C188*%
X140617000Y97917000D03*
X141577000Y97917000D03*
%TD*%
D12*
%TO.C,CN33*%
X77462000Y97675000D03*
X77462000Y98175000D03*
X77462000Y98675000D03*
X77462000Y99175000D03*
X76462000Y99175000D03*
X76462000Y98675000D03*
X76462000Y98175000D03*
X76462000Y97675000D03*
%TD*%
D21*
%TO.C,C197*%
X58661000Y46990000D03*
X60211000Y46990000D03*
%TD*%
D14*
%TO.C,R102*%
X84326000Y87122000D03*
X85346000Y87122000D03*
%TD*%
D16*
%TO.C,U28*%
X161271000Y35491500D03*
X161921000Y35491500D03*
X162571000Y35491500D03*
X163221000Y35491500D03*
X163871000Y35491500D03*
X164521000Y35491500D03*
X165171000Y35491500D03*
X165821000Y35491500D03*
X166471000Y35491500D03*
X167121000Y35491500D03*
X167771000Y35491500D03*
X168421000Y35491500D03*
X168421000Y41216500D03*
X167771000Y41216500D03*
X167121000Y41216500D03*
X166471000Y41216500D03*
X165821000Y41216500D03*
X165171000Y41216500D03*
X164521000Y41216500D03*
X163871000Y41216500D03*
X163221000Y41216500D03*
X162571000Y41216500D03*
X161921000Y41216500D03*
X161271000Y41216500D03*
%TD*%
D10*
%TO.C,C73*%
X95913000Y55245000D03*
X96873000Y55245000D03*
%TD*%
D14*
%TO.C,R66*%
X106678000Y55118000D03*
X107698000Y55118000D03*
%TD*%
D11*
%TO.C,R88*%
X81409000Y85598000D03*
X80389000Y85598000D03*
%TD*%
D16*
%TO.C,U31*%
X116567000Y35491500D03*
X117217000Y35491500D03*
X117867000Y35491500D03*
X118517000Y35491500D03*
X119167000Y35491500D03*
X119817000Y35491500D03*
X120467000Y35491500D03*
X121117000Y35491500D03*
X121767000Y35491500D03*
X122417000Y35491500D03*
X123067000Y35491500D03*
X123717000Y35491500D03*
X123717000Y41216500D03*
X123067000Y41216500D03*
X122417000Y41216500D03*
X121767000Y41216500D03*
X121117000Y41216500D03*
X120467000Y41216500D03*
X119817000Y41216500D03*
X119167000Y41216500D03*
X118517000Y41216500D03*
X117867000Y41216500D03*
X117217000Y41216500D03*
X116567000Y41216500D03*
%TD*%
D11*
%TO.C,R79*%
X103761000Y65786000D03*
X102741000Y65786000D03*
%TD*%
%TO.C,R80*%
X103761000Y74930000D03*
X102741000Y74930000D03*
%TD*%
D16*
%TO.C,U43*%
X138919000Y46159500D03*
X139569000Y46159500D03*
X140219000Y46159500D03*
X140869000Y46159500D03*
X141519000Y46159500D03*
X142169000Y46159500D03*
X142819000Y46159500D03*
X143469000Y46159500D03*
X144119000Y46159500D03*
X144769000Y46159500D03*
X145419000Y46159500D03*
X146069000Y46159500D03*
X146069000Y51884500D03*
X145419000Y51884500D03*
X144769000Y51884500D03*
X144119000Y51884500D03*
X143469000Y51884500D03*
X142819000Y51884500D03*
X142169000Y51884500D03*
X141519000Y51884500D03*
X140869000Y51884500D03*
X140219000Y51884500D03*
X139569000Y51884500D03*
X138919000Y51884500D03*
%TD*%
D13*
%TO.C,U48*%
X86626700Y63817500D03*
X86626700Y63182500D03*
X86626700Y62547500D03*
X86626700Y61912500D03*
X86626700Y61277500D03*
X86626700Y60642500D03*
X86626700Y60007500D03*
X86626700Y59372500D03*
X91935300Y59372500D03*
X91935300Y60007500D03*
X91935300Y60642500D03*
X91935300Y61277500D03*
X91935300Y61912500D03*
X91935300Y62547500D03*
X91935300Y63182500D03*
X91935300Y63817500D03*
%TD*%
D10*
%TO.C,C173*%
X118265000Y12573000D03*
X119225000Y12573000D03*
%TD*%
D15*
%TO.C,U53*%
X151683000Y62552500D03*
X151033000Y62552500D03*
X150383000Y62552500D03*
X149733000Y62552500D03*
X149083000Y62552500D03*
X148433000Y62552500D03*
X147783000Y62552500D03*
X147783000Y56827500D03*
X148433000Y56827500D03*
X149083000Y56827500D03*
X149733000Y56827500D03*
X150383000Y56827500D03*
X151033000Y56827500D03*
X151683000Y56827500D03*
%TD*%
D14*
%TO.C,R101*%
X151128000Y85598000D03*
X152148000Y85598000D03*
%TD*%
D16*
%TO.C,U103*%
X94215000Y14155500D03*
X94865000Y14155500D03*
X95515000Y14155500D03*
X96165000Y14155500D03*
X96815000Y14155500D03*
X97465000Y14155500D03*
X98115000Y14155500D03*
X98765000Y14155500D03*
X99415000Y14155500D03*
X100065000Y14155500D03*
X100715000Y14155500D03*
X101365000Y14155500D03*
X101365000Y19880500D03*
X100715000Y19880500D03*
X100065000Y19880500D03*
X99415000Y19880500D03*
X98765000Y19880500D03*
X98115000Y19880500D03*
X97465000Y19880500D03*
X96815000Y19880500D03*
X96165000Y19880500D03*
X95515000Y19880500D03*
X94865000Y19880500D03*
X94215000Y19880500D03*
%TD*%
D11*
%TO.C,R87*%
X81409000Y76454000D03*
X80389000Y76454000D03*
%TD*%
%TO.C,R36*%
X126113000Y42926000D03*
X125093000Y42926000D03*
%TD*%
D14*
%TO.C,R129*%
X84072000Y21590000D03*
X85092000Y21590000D03*
%TD*%
D11*
%TO.C,R47*%
X126113000Y44450000D03*
X125093000Y44450000D03*
%TD*%
%TO.C,R95*%
X103761000Y76454000D03*
X102741000Y76454000D03*
%TD*%
D14*
%TO.C,R37*%
X128776000Y42926000D03*
X129796000Y42926000D03*
%TD*%
D15*
%TO.C,U107*%
X106979000Y19880500D03*
X106329000Y19880500D03*
X105679000Y19880500D03*
X105029000Y19880500D03*
X104379000Y19880500D03*
X103729000Y19880500D03*
X103079000Y19880500D03*
X103079000Y14155500D03*
X103729000Y14155500D03*
X104379000Y14155500D03*
X105029000Y14155500D03*
X105679000Y14155500D03*
X106329000Y14155500D03*
X106979000Y14155500D03*
%TD*%
D12*
%TO.C,RN5*%
X73779000Y33667000D03*
X73779000Y34167000D03*
X73779000Y34667000D03*
X73779000Y35167000D03*
X72779000Y35167000D03*
X72779000Y34667000D03*
X72779000Y34167000D03*
X72779000Y33667000D03*
%TD*%
D14*
%TO.C,R69*%
X106424000Y64262000D03*
X107444000Y64262000D03*
%TD*%
D16*
%TO.C,U106*%
X138919000Y14155500D03*
X139569000Y14155500D03*
X140219000Y14155500D03*
X140869000Y14155500D03*
X141519000Y14155500D03*
X142169000Y14155500D03*
X142819000Y14155500D03*
X143469000Y14155500D03*
X144119000Y14155500D03*
X144769000Y14155500D03*
X145419000Y14155500D03*
X146069000Y14155500D03*
X146069000Y19880500D03*
X145419000Y19880500D03*
X144769000Y19880500D03*
X144119000Y19880500D03*
X143469000Y19880500D03*
X142819000Y19880500D03*
X142169000Y19880500D03*
X141519000Y19880500D03*
X140869000Y19880500D03*
X140219000Y19880500D03*
X139569000Y19880500D03*
X138919000Y19880500D03*
%TD*%
D12*
%TO.C,CN35*%
X77716000Y103009000D03*
X77716000Y103509000D03*
X77716000Y104009000D03*
X77716000Y104509000D03*
X76716000Y104509000D03*
X76716000Y104009000D03*
X76716000Y103509000D03*
X76716000Y103009000D03*
%TD*%
D15*
%TO.C,U86*%
X151683000Y94556500D03*
X151033000Y94556500D03*
X150383000Y94556500D03*
X149733000Y94556500D03*
X149083000Y94556500D03*
X148433000Y94556500D03*
X147783000Y94556500D03*
X147783000Y88831500D03*
X148433000Y88831500D03*
X149083000Y88831500D03*
X149733000Y88831500D03*
X150383000Y88831500D03*
X151033000Y88831500D03*
X151683000Y88831500D03*
%TD*%
D11*
%TO.C,R32*%
X103761000Y42926000D03*
X102741000Y42926000D03*
%TD*%
D10*
%TO.C,C183*%
X118265000Y97917000D03*
X119225000Y97917000D03*
%TD*%
D13*
%TO.C,U24*%
X86626700Y42481500D03*
X86626700Y41846500D03*
X86626700Y41211500D03*
X86626700Y40576500D03*
X86626700Y39941500D03*
X86626700Y39306500D03*
X86626700Y38671500D03*
X86626700Y38036500D03*
X91935300Y38036500D03*
X91935300Y38671500D03*
X91935300Y39306500D03*
X91935300Y39941500D03*
X91935300Y40576500D03*
X91935300Y41211500D03*
X91935300Y41846500D03*
X91935300Y42481500D03*
%TD*%
D15*
%TO.C,U44*%
X84627000Y51884500D03*
X83977000Y51884500D03*
X83327000Y51884500D03*
X82677000Y51884500D03*
X82027000Y51884500D03*
X81377000Y51884500D03*
X80727000Y51884500D03*
X80727000Y46159500D03*
X81377000Y46159500D03*
X82027000Y46159500D03*
X82677000Y46159500D03*
X83327000Y46159500D03*
X83977000Y46159500D03*
X84627000Y46159500D03*
%TD*%
D11*
%TO.C,R111*%
X126113000Y87122000D03*
X125093000Y87122000D03*
%TD*%
D14*
%TO.C,R18*%
X84326000Y23114000D03*
X85346000Y23114000D03*
%TD*%
D15*
%TO.C,U2*%
X129331000Y30548500D03*
X128681000Y30548500D03*
X128031000Y30548500D03*
X127381000Y30548500D03*
X126731000Y30548500D03*
X126081000Y30548500D03*
X125431000Y30548500D03*
X125431000Y24823500D03*
X126081000Y24823500D03*
X126731000Y24823500D03*
X127381000Y24823500D03*
X128031000Y24823500D03*
X128681000Y24823500D03*
X129331000Y24823500D03*
%TD*%
D13*
%TO.C,U27*%
X153682700Y42481500D03*
X153682700Y41846500D03*
X153682700Y41211500D03*
X153682700Y40576500D03*
X153682700Y39941500D03*
X153682700Y39306500D03*
X153682700Y38671500D03*
X153682700Y38036500D03*
X158991300Y38036500D03*
X158991300Y38671500D03*
X158991300Y39306500D03*
X158991300Y39941500D03*
X158991300Y40576500D03*
X158991300Y41211500D03*
X158991300Y41846500D03*
X158991300Y42481500D03*
%TD*%
D14*
%TO.C,R126*%
X84326000Y12446000D03*
X85346000Y12446000D03*
%TD*%
D10*
%TO.C,C63*%
X140617000Y44577000D03*
X141577000Y44577000D03*
%TD*%
D11*
%TO.C,R103*%
X81409000Y87122000D03*
X80389000Y87122000D03*
%TD*%
D13*
%TO.C,U105*%
X131330700Y21145500D03*
X131330700Y20510500D03*
X131330700Y19875500D03*
X131330700Y19240500D03*
X131330700Y18605500D03*
X131330700Y17970500D03*
X131330700Y17335500D03*
X131330700Y16700500D03*
X136639300Y16700500D03*
X136639300Y17335500D03*
X136639300Y17970500D03*
X136639300Y18605500D03*
X136639300Y19240500D03*
X136639300Y19875500D03*
X136639300Y20510500D03*
X136639300Y21145500D03*
%TD*%
D16*
%TO.C,U94*%
X116567000Y88831500D03*
X117217000Y88831500D03*
X117867000Y88831500D03*
X118517000Y88831500D03*
X119167000Y88831500D03*
X119817000Y88831500D03*
X120467000Y88831500D03*
X121117000Y88831500D03*
X121767000Y88831500D03*
X122417000Y88831500D03*
X123067000Y88831500D03*
X123717000Y88831500D03*
X123717000Y94556500D03*
X123067000Y94556500D03*
X122417000Y94556500D03*
X121767000Y94556500D03*
X121117000Y94556500D03*
X120467000Y94556500D03*
X119817000Y94556500D03*
X119167000Y94556500D03*
X118517000Y94556500D03*
X117867000Y94556500D03*
X117217000Y94556500D03*
X116567000Y94556500D03*
%TD*%
D22*
%TO.C,C195*%
X194310000Y22873000D03*
X194310000Y21323000D03*
%TD*%
D11*
%TO.C,R28*%
X148465000Y42926000D03*
X147445000Y42926000D03*
%TD*%
D10*
%TO.C,C68*%
X95913000Y44577000D03*
X96873000Y44577000D03*
%TD*%
D12*
%TO.C,CN13*%
X77462000Y55003000D03*
X77462000Y55503000D03*
X77462000Y56003000D03*
X77462000Y56503000D03*
X76462000Y56503000D03*
X76462000Y56003000D03*
X76462000Y55503000D03*
X76462000Y55003000D03*
%TD*%
D13*
%TO.C,U51*%
X131330700Y63817500D03*
X131330700Y63182500D03*
X131330700Y62547500D03*
X131330700Y61912500D03*
X131330700Y61277500D03*
X131330700Y60642500D03*
X131330700Y60007500D03*
X131330700Y59372500D03*
X136639300Y59372500D03*
X136639300Y60007500D03*
X136639300Y60642500D03*
X136639300Y61277500D03*
X136639300Y61912500D03*
X136639300Y62547500D03*
X136639300Y63182500D03*
X136639300Y63817500D03*
%TD*%
D14*
%TO.C,R106*%
X151382000Y87122000D03*
X152402000Y87122000D03*
%TD*%
D11*
%TO.C,R23*%
X81409000Y33782000D03*
X80389000Y33782000D03*
%TD*%
D14*
%TO.C,R105*%
X84072000Y96266000D03*
X85092000Y96266000D03*
%TD*%
%TO.C,R22*%
X84326000Y33782000D03*
X85346000Y33782000D03*
%TD*%
%TO.C,R90*%
X129030000Y76454000D03*
X130050000Y76454000D03*
%TD*%
D12*
%TO.C,CN8*%
X77462000Y41668000D03*
X77462000Y42168000D03*
X77462000Y42668000D03*
X77462000Y43168000D03*
X76462000Y43168000D03*
X76462000Y42668000D03*
X76462000Y42168000D03*
X76462000Y41668000D03*
%TD*%
%TO.C,CN1*%
X77462000Y22999000D03*
X77462000Y23499000D03*
X77462000Y23999000D03*
X77462000Y24499000D03*
X76462000Y24499000D03*
X76462000Y23999000D03*
X76462000Y23499000D03*
X76462000Y22999000D03*
%TD*%
D13*
%TO.C,U99*%
X153682700Y106489500D03*
X153682700Y105854500D03*
X153682700Y105219500D03*
X153682700Y104584500D03*
X153682700Y103949500D03*
X153682700Y103314500D03*
X153682700Y102679500D03*
X153682700Y102044500D03*
X158991300Y102044500D03*
X158991300Y102679500D03*
X158991300Y103314500D03*
X158991300Y103949500D03*
X158991300Y104584500D03*
X158991300Y105219500D03*
X158991300Y105854500D03*
X158991300Y106489500D03*
%TD*%
D14*
%TO.C,R82*%
X151382000Y65786000D03*
X152402000Y65786000D03*
%TD*%
D10*
%TO.C,C23*%
X118265000Y23241000D03*
X119225000Y23241000D03*
%TD*%
D16*
%TO.C,U64*%
X94215000Y67495500D03*
X94865000Y67495500D03*
X95515000Y67495500D03*
X96165000Y67495500D03*
X96815000Y67495500D03*
X97465000Y67495500D03*
X98115000Y67495500D03*
X98765000Y67495500D03*
X99415000Y67495500D03*
X100065000Y67495500D03*
X100715000Y67495500D03*
X101365000Y67495500D03*
X101365000Y73220500D03*
X100715000Y73220500D03*
X100065000Y73220500D03*
X99415000Y73220500D03*
X98765000Y73220500D03*
X98115000Y73220500D03*
X97465000Y73220500D03*
X96815000Y73220500D03*
X96165000Y73220500D03*
X95515000Y73220500D03*
X94865000Y73220500D03*
X94215000Y73220500D03*
%TD*%
D15*
%TO.C,U83*%
X84627000Y94556500D03*
X83977000Y94556500D03*
X83327000Y94556500D03*
X82677000Y94556500D03*
X82027000Y94556500D03*
X81377000Y94556500D03*
X80727000Y94556500D03*
X80727000Y88831500D03*
X81377000Y88831500D03*
X82027000Y88831500D03*
X82677000Y88831500D03*
X83327000Y88831500D03*
X83977000Y88831500D03*
X84627000Y88831500D03*
%TD*%
D12*
%TO.C,CN20*%
X77462000Y73672000D03*
X77462000Y74172000D03*
X77462000Y74672000D03*
X77462000Y75172000D03*
X76462000Y75172000D03*
X76462000Y74672000D03*
X76462000Y74172000D03*
X76462000Y73672000D03*
%TD*%
D22*
%TO.C,C194*%
X194437000Y39383000D03*
X194437000Y37833000D03*
%TD*%
D12*
%TO.C,RN29*%
X73779000Y12331000D03*
X73779000Y12831000D03*
X73779000Y13331000D03*
X73779000Y13831000D03*
X72779000Y13831000D03*
X72779000Y13331000D03*
X72779000Y12831000D03*
X72779000Y12331000D03*
%TD*%
D13*
%TO.C,U21*%
X86626700Y31813500D03*
X86626700Y31178500D03*
X86626700Y30543500D03*
X86626700Y29908500D03*
X86626700Y29273500D03*
X86626700Y28638500D03*
X86626700Y28003500D03*
X86626700Y27368500D03*
X91935300Y27368500D03*
X91935300Y28003500D03*
X91935300Y28638500D03*
X91935300Y29273500D03*
X91935300Y29908500D03*
X91935300Y30543500D03*
X91935300Y31178500D03*
X91935300Y31813500D03*
%TD*%
D15*
%TO.C,U35*%
X106979000Y51884500D03*
X106329000Y51884500D03*
X105679000Y51884500D03*
X105029000Y51884500D03*
X104379000Y51884500D03*
X103729000Y51884500D03*
X103079000Y51884500D03*
X103079000Y46159500D03*
X103729000Y46159500D03*
X104379000Y46159500D03*
X105029000Y46159500D03*
X105679000Y46159500D03*
X106329000Y46159500D03*
X106979000Y46159500D03*
%TD*%
D12*
%TO.C,RN23*%
X73779000Y81673000D03*
X73779000Y82173000D03*
X73779000Y82673000D03*
X73779000Y83173000D03*
X72779000Y83173000D03*
X72779000Y82673000D03*
X72779000Y82173000D03*
X72779000Y81673000D03*
%TD*%
D16*
%TO.C,U61*%
X138919000Y67495500D03*
X139569000Y67495500D03*
X140219000Y67495500D03*
X140869000Y67495500D03*
X141519000Y67495500D03*
X142169000Y67495500D03*
X142819000Y67495500D03*
X143469000Y67495500D03*
X144119000Y67495500D03*
X144769000Y67495500D03*
X145419000Y67495500D03*
X146069000Y67495500D03*
X146069000Y73220500D03*
X145419000Y73220500D03*
X144769000Y73220500D03*
X144119000Y73220500D03*
X143469000Y73220500D03*
X142819000Y73220500D03*
X142169000Y73220500D03*
X141519000Y73220500D03*
X140869000Y73220500D03*
X140219000Y73220500D03*
X139569000Y73220500D03*
X138919000Y73220500D03*
%TD*%
%TO.C,U91*%
X138919000Y88831500D03*
X139569000Y88831500D03*
X140219000Y88831500D03*
X140869000Y88831500D03*
X141519000Y88831500D03*
X142169000Y88831500D03*
X142819000Y88831500D03*
X143469000Y88831500D03*
X144119000Y88831500D03*
X144769000Y88831500D03*
X145419000Y88831500D03*
X146069000Y88831500D03*
X146069000Y94556500D03*
X145419000Y94556500D03*
X144769000Y94556500D03*
X144119000Y94556500D03*
X143469000Y94556500D03*
X142819000Y94556500D03*
X142169000Y94556500D03*
X141519000Y94556500D03*
X140869000Y94556500D03*
X140219000Y94556500D03*
X139569000Y94556500D03*
X138919000Y94556500D03*
%TD*%
%TO.C,U22*%
X94215000Y24823500D03*
X94865000Y24823500D03*
X95515000Y24823500D03*
X96165000Y24823500D03*
X96815000Y24823500D03*
X97465000Y24823500D03*
X98115000Y24823500D03*
X98765000Y24823500D03*
X99415000Y24823500D03*
X100065000Y24823500D03*
X100715000Y24823500D03*
X101365000Y24823500D03*
X101365000Y30548500D03*
X100715000Y30548500D03*
X100065000Y30548500D03*
X99415000Y30548500D03*
X98765000Y30548500D03*
X98115000Y30548500D03*
X97465000Y30548500D03*
X96815000Y30548500D03*
X96165000Y30548500D03*
X95515000Y30548500D03*
X94865000Y30548500D03*
X94215000Y30548500D03*
%TD*%
D15*
%TO.C,U26*%
X151683000Y41216500D03*
X151033000Y41216500D03*
X150383000Y41216500D03*
X149733000Y41216500D03*
X149083000Y41216500D03*
X148433000Y41216500D03*
X147783000Y41216500D03*
X147783000Y35491500D03*
X148433000Y35491500D03*
X149083000Y35491500D03*
X149733000Y35491500D03*
X150383000Y35491500D03*
X151033000Y35491500D03*
X151683000Y35491500D03*
%TD*%
D31*
%TO.C,C12*%
X51054000Y92556500D03*
X51054000Y90831500D03*
%TD*%
D11*
%TO.C,R56*%
X81409000Y64262000D03*
X80389000Y64262000D03*
%TD*%
D32*
%TO.C,R4*%
X40060000Y122051500D03*
X40060000Y120226500D03*
%TD*%
D24*
%TO.C,J9*%
X39122000Y63828000D03*
X44852000Y63828000D03*
X39122000Y63028000D03*
X44852000Y63028000D03*
X39122000Y62228000D03*
X44852000Y62228000D03*
X39122000Y61428000D03*
X44852000Y61428000D03*
X39122000Y60628000D03*
X44852000Y60628000D03*
X39122000Y59828000D03*
X44852000Y59828000D03*
X39122000Y59028000D03*
X44852000Y59028000D03*
X39122000Y58228000D03*
X44852000Y58228000D03*
X39122000Y57428000D03*
X44852000Y57428000D03*
X39122000Y56628000D03*
X44852000Y56628000D03*
X39122000Y55828000D03*
X44852000Y55828000D03*
X39122000Y55028000D03*
X44852000Y55028000D03*
X39122000Y54228000D03*
X44852000Y54228000D03*
X39122000Y53428000D03*
X44852000Y53428000D03*
X39122000Y52628000D03*
X44852000Y52628000D03*
X39122000Y51828000D03*
X44852000Y51828000D03*
X39122000Y51028000D03*
X44852000Y51028000D03*
X39122000Y50228000D03*
X44852000Y50228000D03*
X39122000Y49428000D03*
X44852000Y49428000D03*
X39122000Y48628000D03*
X44852000Y48628000D03*
X39122000Y43828000D03*
X44852000Y43828000D03*
X39122000Y43028000D03*
X44852000Y43028000D03*
X39122000Y42228000D03*
X44852000Y42228000D03*
X39122000Y41428000D03*
X44852000Y41428000D03*
X39122000Y40628000D03*
X44852000Y40628000D03*
X39122000Y39828000D03*
X44852000Y39828000D03*
X39122000Y39028000D03*
X44852000Y39028000D03*
X39122000Y38228000D03*
X44852000Y38228000D03*
X39122000Y37428000D03*
X44852000Y37428000D03*
X39122000Y36628000D03*
X44852000Y36628000D03*
X39122000Y35828000D03*
X44852000Y35828000D03*
X39122000Y35028000D03*
X44852000Y35028000D03*
X39122000Y34228000D03*
X44852000Y34228000D03*
X39122000Y33428000D03*
X44852000Y33428000D03*
X39122000Y32628000D03*
X44852000Y32628000D03*
X39122000Y31828000D03*
X44852000Y31828000D03*
X39122000Y31028000D03*
X44852000Y31028000D03*
X39122000Y30228000D03*
X44852000Y30228000D03*
X39122000Y29428000D03*
X44852000Y29428000D03*
X39122000Y28628000D03*
X44852000Y28628000D03*
D25*
X41987000Y64293000D03*
D26*
X41987000Y59403000D03*
X41987000Y53053000D03*
D25*
X41987000Y48163000D03*
X41987000Y44293000D03*
D26*
X41987000Y39403000D03*
X41987000Y33053000D03*
D25*
X41987000Y28163000D03*
%TD*%
D13*
%TO.C,U57*%
X108978700Y63817500D03*
X108978700Y63182500D03*
X108978700Y62547500D03*
X108978700Y61912500D03*
X108978700Y61277500D03*
X108978700Y60642500D03*
X108978700Y60007500D03*
X108978700Y59372500D03*
X114287300Y59372500D03*
X114287300Y60007500D03*
X114287300Y60642500D03*
X114287300Y61277500D03*
X114287300Y61912500D03*
X114287300Y62547500D03*
X114287300Y63182500D03*
X114287300Y63817500D03*
%TD*%
D33*
%TO.C,R6*%
X65024000Y113919000D03*
X66849000Y113919000D03*
%TD*%
D12*
%TO.C,CN18*%
X77462000Y68338000D03*
X77462000Y68838000D03*
X77462000Y69338000D03*
X77462000Y69838000D03*
X76462000Y69838000D03*
X76462000Y69338000D03*
X76462000Y68838000D03*
X76462000Y68338000D03*
%TD*%
%TO.C,CN28*%
X77462000Y95008000D03*
X77462000Y95508000D03*
X77462000Y96008000D03*
X77462000Y96508000D03*
X76462000Y96508000D03*
X76462000Y96008000D03*
X76462000Y95508000D03*
X76462000Y95008000D03*
%TD*%
D13*
%TO.C,U54*%
X153682700Y63817500D03*
X153682700Y63182500D03*
X153682700Y62547500D03*
X153682700Y61912500D03*
X153682700Y61277500D03*
X153682700Y60642500D03*
X153682700Y60007500D03*
X153682700Y59372500D03*
X158991300Y59372500D03*
X158991300Y60007500D03*
X158991300Y60642500D03*
X158991300Y61277500D03*
X158991300Y61912500D03*
X158991300Y62547500D03*
X158991300Y63182500D03*
X158991300Y63817500D03*
%TD*%
D11*
%TO.C,R120*%
X81409000Y106934000D03*
X80389000Y106934000D03*
%TD*%
%TO.C,R8*%
X126113000Y32258000D03*
X125093000Y32258000D03*
%TD*%
%TO.C,R71*%
X126113000Y65786000D03*
X125093000Y65786000D03*
%TD*%
D13*
%TO.C,U3*%
X131330700Y31813500D03*
X131330700Y31178500D03*
X131330700Y30543500D03*
X131330700Y29908500D03*
X131330700Y29273500D03*
X131330700Y28638500D03*
X131330700Y28003500D03*
X131330700Y27368500D03*
X136639300Y27368500D03*
X136639300Y28003500D03*
X136639300Y28638500D03*
X136639300Y29273500D03*
X136639300Y29908500D03*
X136639300Y30543500D03*
X136639300Y31178500D03*
X136639300Y31813500D03*
%TD*%
D20*
%TO.C,U120*%
X202125500Y97786000D03*
X202125500Y98436000D03*
X202125500Y99086000D03*
X202125500Y99736000D03*
X202125500Y100386000D03*
X202125500Y101036000D03*
X202125500Y101686000D03*
X202125500Y102336000D03*
X202125500Y102986000D03*
X202125500Y103636000D03*
X196400500Y103636000D03*
X196400500Y102986000D03*
X196400500Y102336000D03*
X196400500Y101686000D03*
X196400500Y101036000D03*
X196400500Y100386000D03*
X196400500Y99736000D03*
X196400500Y99086000D03*
X196400500Y98436000D03*
X196400500Y97786000D03*
%TD*%
D11*
%TO.C,R108*%
X148465000Y96266000D03*
X147445000Y96266000D03*
%TD*%
D10*
%TO.C,C5*%
X140617000Y23241000D03*
X141577000Y23241000D03*
%TD*%
D14*
%TO.C,R70*%
X129030000Y65786000D03*
X130050000Y65786000D03*
%TD*%
D12*
%TO.C,RN20*%
X73779000Y73672000D03*
X73779000Y74172000D03*
X73779000Y74672000D03*
X73779000Y75172000D03*
X72779000Y75172000D03*
X72779000Y74672000D03*
X72779000Y74172000D03*
X72779000Y73672000D03*
%TD*%
D16*
%TO.C,U25*%
X94215000Y35491500D03*
X94865000Y35491500D03*
X95515000Y35491500D03*
X96165000Y35491500D03*
X96815000Y35491500D03*
X97465000Y35491500D03*
X98115000Y35491500D03*
X98765000Y35491500D03*
X99415000Y35491500D03*
X100065000Y35491500D03*
X100715000Y35491500D03*
X101365000Y35491500D03*
X101365000Y41216500D03*
X100715000Y41216500D03*
X100065000Y41216500D03*
X99415000Y41216500D03*
X98765000Y41216500D03*
X98115000Y41216500D03*
X97465000Y41216500D03*
X96815000Y41216500D03*
X96165000Y41216500D03*
X95515000Y41216500D03*
X94865000Y41216500D03*
X94215000Y41216500D03*
%TD*%
D11*
%TO.C,R51*%
X81409000Y44450000D03*
X80389000Y44450000D03*
%TD*%
D12*
%TO.C,RN36*%
X73779000Y105676000D03*
X73779000Y106176000D03*
X73779000Y106676000D03*
X73779000Y107176000D03*
X72779000Y107176000D03*
X72779000Y106676000D03*
X72779000Y106176000D03*
X72779000Y105676000D03*
%TD*%
D14*
%TO.C,R38*%
X106678000Y44450000D03*
X107698000Y44450000D03*
%TD*%
D13*
%TO.C,U15*%
X153682700Y31813500D03*
X153682700Y31178500D03*
X153682700Y30543500D03*
X153682700Y29908500D03*
X153682700Y29273500D03*
X153682700Y28638500D03*
X153682700Y28003500D03*
X153682700Y27368500D03*
X158991300Y27368500D03*
X158991300Y28003500D03*
X158991300Y28638500D03*
X158991300Y29273500D03*
X158991300Y29908500D03*
X158991300Y30543500D03*
X158991300Y31178500D03*
X158991300Y31813500D03*
%TD*%
D12*
%TO.C,RN32*%
X73779000Y20332000D03*
X73779000Y20832000D03*
X73779000Y21332000D03*
X73779000Y21832000D03*
X72779000Y21832000D03*
X72779000Y21332000D03*
X72779000Y20832000D03*
X72779000Y20332000D03*
%TD*%
%TO.C,RN26*%
X73779000Y89674000D03*
X73779000Y90174000D03*
X73779000Y90674000D03*
X73779000Y91174000D03*
X72779000Y91174000D03*
X72779000Y90674000D03*
X72779000Y90174000D03*
X72779000Y89674000D03*
%TD*%
D20*
%TO.C,U121*%
X202125500Y116582000D03*
X202125500Y117232000D03*
X202125500Y117882000D03*
X202125500Y118532000D03*
X202125500Y119182000D03*
X202125500Y119832000D03*
X202125500Y120482000D03*
X202125500Y121132000D03*
X202125500Y121782000D03*
X202125500Y122432000D03*
X196400500Y122432000D03*
X196400500Y121782000D03*
X196400500Y121132000D03*
X196400500Y120482000D03*
X196400500Y119832000D03*
X196400500Y119182000D03*
X196400500Y118532000D03*
X196400500Y117882000D03*
X196400500Y117232000D03*
X196400500Y116582000D03*
%TD*%
D11*
%TO.C,R19*%
X81409000Y23114000D03*
X80389000Y23114000D03*
%TD*%
%TO.C,R96*%
X103761000Y85598000D03*
X102741000Y85598000D03*
%TD*%
D13*
%TO.C,U39*%
X153682700Y53149500D03*
X153682700Y52514500D03*
X153682700Y51879500D03*
X153682700Y51244500D03*
X153682700Y50609500D03*
X153682700Y49974500D03*
X153682700Y49339500D03*
X153682700Y48704500D03*
X158991300Y48704500D03*
X158991300Y49339500D03*
X158991300Y49974500D03*
X158991300Y50609500D03*
X158991300Y51244500D03*
X158991300Y51879500D03*
X158991300Y52514500D03*
X158991300Y53149500D03*
%TD*%
D34*
%TO.C,U10*%
X66002500Y118115500D03*
X66952500Y118115500D03*
X67902500Y118115500D03*
X67902500Y120390500D03*
X66002500Y120390500D03*
%TD*%
D12*
%TO.C,CN3*%
X77716000Y28333000D03*
X77716000Y28833000D03*
X77716000Y29333000D03*
X77716000Y29833000D03*
X76716000Y29833000D03*
X76716000Y29333000D03*
X76716000Y28833000D03*
X76716000Y28333000D03*
%TD*%
D11*
%TO.C,R148*%
X126113000Y106934000D03*
X125093000Y106934000D03*
%TD*%
D15*
%TO.C,U29*%
X106979000Y41216500D03*
X106329000Y41216500D03*
X105679000Y41216500D03*
X105029000Y41216500D03*
X104379000Y41216500D03*
X103729000Y41216500D03*
X103079000Y41216500D03*
X103079000Y35491500D03*
X103729000Y35491500D03*
X104379000Y35491500D03*
X105029000Y35491500D03*
X105679000Y35491500D03*
X106329000Y35491500D03*
X106979000Y35491500D03*
%TD*%
%TO.C,U17*%
X106979000Y30548500D03*
X106329000Y30548500D03*
X105679000Y30548500D03*
X105029000Y30548500D03*
X104379000Y30548500D03*
X103729000Y30548500D03*
X103079000Y30548500D03*
X103079000Y24823500D03*
X103729000Y24823500D03*
X104379000Y24823500D03*
X105029000Y24823500D03*
X105679000Y24823500D03*
X106329000Y24823500D03*
X106979000Y24823500D03*
%TD*%
D12*
%TO.C,CN31*%
X77716000Y17665000D03*
X77716000Y18165000D03*
X77716000Y18665000D03*
X77716000Y19165000D03*
X76716000Y19165000D03*
X76716000Y18665000D03*
X76716000Y18165000D03*
X76716000Y17665000D03*
%TD*%
D13*
%TO.C,U78*%
X108978700Y85153500D03*
X108978700Y84518500D03*
X108978700Y83883500D03*
X108978700Y83248500D03*
X108978700Y82613500D03*
X108978700Y81978500D03*
X108978700Y81343500D03*
X108978700Y80708500D03*
X114287300Y80708500D03*
X114287300Y81343500D03*
X114287300Y81978500D03*
X114287300Y82613500D03*
X114287300Y83248500D03*
X114287300Y83883500D03*
X114287300Y84518500D03*
X114287300Y85153500D03*
%TD*%
D10*
%TO.C,C168*%
X140617000Y12573000D03*
X141577000Y12573000D03*
%TD*%
%TO.C,C178*%
X162969000Y12573000D03*
X163929000Y12573000D03*
%TD*%
D17*
%TO.C,U12*%
X83119000Y119507000D03*
X82169000Y119507000D03*
X81219000Y119507000D03*
X81219000Y117232000D03*
X83119000Y117232000D03*
%TD*%
D11*
%TO.C,R104*%
X81409000Y96266000D03*
X80389000Y96266000D03*
%TD*%
D13*
%TO.C,U45*%
X86626700Y53149500D03*
X86626700Y52514500D03*
X86626700Y51879500D03*
X86626700Y51244500D03*
X86626700Y50609500D03*
X86626700Y49974500D03*
X86626700Y49339500D03*
X86626700Y48704500D03*
X91935300Y48704500D03*
X91935300Y49339500D03*
X91935300Y49974500D03*
X91935300Y50609500D03*
X91935300Y51244500D03*
X91935300Y51879500D03*
X91935300Y52514500D03*
X91935300Y53149500D03*
%TD*%
D35*
%TO.C,C1*%
X43688000Y80505000D03*
X43688000Y82055000D03*
%TD*%
D16*
%TO.C,U123*%
X195957000Y19235500D03*
X196607000Y19235500D03*
X197257000Y19235500D03*
X197907000Y19235500D03*
X198557000Y19235500D03*
X199207000Y19235500D03*
X199857000Y19235500D03*
X200507000Y19235500D03*
X201157000Y19235500D03*
X201807000Y19235500D03*
X201807000Y24960500D03*
X201157000Y24960500D03*
X200507000Y24960500D03*
X199857000Y24960500D03*
X199207000Y24960500D03*
X198557000Y24960500D03*
X197907000Y24960500D03*
X197257000Y24960500D03*
X196607000Y24960500D03*
X195957000Y24960500D03*
%TD*%
D14*
%TO.C,R89*%
X84072000Y85598000D03*
X85092000Y85598000D03*
%TD*%
D15*
%TO.C,U92*%
X106979000Y94556500D03*
X106329000Y94556500D03*
X105679000Y94556500D03*
X105029000Y94556500D03*
X104379000Y94556500D03*
X103729000Y94556500D03*
X103079000Y94556500D03*
X103079000Y88831500D03*
X103729000Y88831500D03*
X104379000Y88831500D03*
X105029000Y88831500D03*
X105679000Y88831500D03*
X106329000Y88831500D03*
X106979000Y88831500D03*
%TD*%
D14*
%TO.C,R21*%
X84072000Y32258000D03*
X85092000Y32258000D03*
%TD*%
D16*
%TO.C,U97*%
X94215000Y99499500D03*
X94865000Y99499500D03*
X95515000Y99499500D03*
X96165000Y99499500D03*
X96815000Y99499500D03*
X97465000Y99499500D03*
X98115000Y99499500D03*
X98765000Y99499500D03*
X99415000Y99499500D03*
X100065000Y99499500D03*
X100715000Y99499500D03*
X101365000Y99499500D03*
X101365000Y105224500D03*
X100715000Y105224500D03*
X100065000Y105224500D03*
X99415000Y105224500D03*
X98765000Y105224500D03*
X98115000Y105224500D03*
X97465000Y105224500D03*
X96815000Y105224500D03*
X96165000Y105224500D03*
X95515000Y105224500D03*
X94865000Y105224500D03*
X94215000Y105224500D03*
%TD*%
D15*
%TO.C,U59*%
X129331000Y73220500D03*
X128681000Y73220500D03*
X128031000Y73220500D03*
X127381000Y73220500D03*
X126731000Y73220500D03*
X126081000Y73220500D03*
X125431000Y73220500D03*
X125431000Y67495500D03*
X126081000Y67495500D03*
X126731000Y67495500D03*
X127381000Y67495500D03*
X128031000Y67495500D03*
X128681000Y67495500D03*
X129331000Y67495500D03*
%TD*%
D16*
%TO.C,U34*%
X138919000Y35491500D03*
X139569000Y35491500D03*
X140219000Y35491500D03*
X140869000Y35491500D03*
X141519000Y35491500D03*
X142169000Y35491500D03*
X142819000Y35491500D03*
X143469000Y35491500D03*
X144119000Y35491500D03*
X144769000Y35491500D03*
X145419000Y35491500D03*
X146069000Y35491500D03*
X146069000Y41216500D03*
X145419000Y41216500D03*
X144769000Y41216500D03*
X144119000Y41216500D03*
X143469000Y41216500D03*
X142819000Y41216500D03*
X142169000Y41216500D03*
X141519000Y41216500D03*
X140869000Y41216500D03*
X140219000Y41216500D03*
X139569000Y41216500D03*
X138919000Y41216500D03*
%TD*%
D32*
%TO.C,R150*%
X128270000Y119911500D03*
X128270000Y118086500D03*
%TD*%
D13*
%TO.C,U69*%
X153682700Y74485500D03*
X153682700Y73850500D03*
X153682700Y73215500D03*
X153682700Y72580500D03*
X153682700Y71945500D03*
X153682700Y71310500D03*
X153682700Y70675500D03*
X153682700Y70040500D03*
X158991300Y70040500D03*
X158991300Y70675500D03*
X158991300Y71310500D03*
X158991300Y71945500D03*
X158991300Y72580500D03*
X158991300Y73215500D03*
X158991300Y73850500D03*
X158991300Y74485500D03*
%TD*%
D15*
%TO.C,U101*%
X84627000Y19880500D03*
X83977000Y19880500D03*
X83327000Y19880500D03*
X82677000Y19880500D03*
X82027000Y19880500D03*
X81377000Y19880500D03*
X80727000Y19880500D03*
X80727000Y14155500D03*
X81377000Y14155500D03*
X82027000Y14155500D03*
X82677000Y14155500D03*
X83327000Y14155500D03*
X83977000Y14155500D03*
X84627000Y14155500D03*
%TD*%
D12*
%TO.C,CN30*%
X77462000Y14998000D03*
X77462000Y15498000D03*
X77462000Y15998000D03*
X77462000Y16498000D03*
X76462000Y16498000D03*
X76462000Y15998000D03*
X76462000Y15498000D03*
X76462000Y14998000D03*
%TD*%
%TO.C,CN25*%
X77462000Y87007000D03*
X77462000Y87507000D03*
X77462000Y88007000D03*
X77462000Y88507000D03*
X76462000Y88507000D03*
X76462000Y88007000D03*
X76462000Y87507000D03*
X76462000Y87007000D03*
%TD*%
D14*
%TO.C,R58*%
X129030000Y55118000D03*
X130050000Y55118000D03*
%TD*%
D12*
%TO.C,RN9*%
X73779000Y44335000D03*
X73779000Y44835000D03*
X73779000Y45335000D03*
X73779000Y45835000D03*
X72779000Y45835000D03*
X72779000Y45335000D03*
X72779000Y44835000D03*
X72779000Y44335000D03*
%TD*%
D10*
%TO.C,C128*%
X162969000Y76581000D03*
X163929000Y76581000D03*
%TD*%
D15*
%TO.C,U116*%
X129331000Y105224500D03*
X128681000Y105224500D03*
X128031000Y105224500D03*
X127381000Y105224500D03*
X126731000Y105224500D03*
X126081000Y105224500D03*
X125431000Y105224500D03*
X125431000Y99499500D03*
X126081000Y99499500D03*
X126731000Y99499500D03*
X127381000Y99499500D03*
X128031000Y99499500D03*
X128681000Y99499500D03*
X129331000Y99499500D03*
%TD*%
D11*
%TO.C,R40*%
X103761000Y53594000D03*
X102741000Y53594000D03*
%TD*%
D16*
%TO.C,U85*%
X94215000Y88831500D03*
X94865000Y88831500D03*
X95515000Y88831500D03*
X96165000Y88831500D03*
X96815000Y88831500D03*
X97465000Y88831500D03*
X98115000Y88831500D03*
X98765000Y88831500D03*
X99415000Y88831500D03*
X100065000Y88831500D03*
X100715000Y88831500D03*
X101365000Y88831500D03*
X101365000Y94556500D03*
X100715000Y94556500D03*
X100065000Y94556500D03*
X99415000Y94556500D03*
X98765000Y94556500D03*
X98115000Y94556500D03*
X97465000Y94556500D03*
X96815000Y94556500D03*
X96165000Y94556500D03*
X95515000Y94556500D03*
X94865000Y94556500D03*
X94215000Y94556500D03*
%TD*%
D10*
%TO.C,C158*%
X162969000Y97917000D03*
X163929000Y97917000D03*
%TD*%
D12*
%TO.C,RN2*%
X73779000Y25666000D03*
X73779000Y26166000D03*
X73779000Y26666000D03*
X73779000Y27166000D03*
X72779000Y27166000D03*
X72779000Y26666000D03*
X72779000Y26166000D03*
X72779000Y25666000D03*
%TD*%
D32*
%TO.C,R5*%
X54859000Y90574500D03*
X54859000Y88749500D03*
%TD*%
D10*
%TO.C,C28*%
X95913000Y23241000D03*
X96873000Y23241000D03*
%TD*%
D12*
%TO.C,RN8*%
X73779000Y41668000D03*
X73779000Y42168000D03*
X73779000Y42668000D03*
X73779000Y43168000D03*
X72779000Y43168000D03*
X72779000Y42668000D03*
X72779000Y42168000D03*
X72779000Y41668000D03*
%TD*%
D14*
%TO.C,R10*%
X151382000Y23114000D03*
X152402000Y23114000D03*
%TD*%
%TO.C,R54*%
X84326000Y55118000D03*
X85346000Y55118000D03*
%TD*%
D16*
%TO.C,U49*%
X94215000Y56827500D03*
X94865000Y56827500D03*
X95515000Y56827500D03*
X96165000Y56827500D03*
X96815000Y56827500D03*
X97465000Y56827500D03*
X98115000Y56827500D03*
X98765000Y56827500D03*
X99415000Y56827500D03*
X100065000Y56827500D03*
X100715000Y56827500D03*
X101365000Y56827500D03*
X101365000Y62552500D03*
X100715000Y62552500D03*
X100065000Y62552500D03*
X99415000Y62552500D03*
X98765000Y62552500D03*
X98115000Y62552500D03*
X97465000Y62552500D03*
X96815000Y62552500D03*
X96165000Y62552500D03*
X95515000Y62552500D03*
X94865000Y62552500D03*
X94215000Y62552500D03*
%TD*%
D13*
%TO.C,U72*%
X86626700Y85153500D03*
X86626700Y84518500D03*
X86626700Y83883500D03*
X86626700Y83248500D03*
X86626700Y82613500D03*
X86626700Y81978500D03*
X86626700Y81343500D03*
X86626700Y80708500D03*
X91935300Y80708500D03*
X91935300Y81343500D03*
X91935300Y81978500D03*
X91935300Y82613500D03*
X91935300Y83248500D03*
X91935300Y83883500D03*
X91935300Y84518500D03*
X91935300Y85153500D03*
%TD*%
%TO.C,U33*%
X131330700Y42481500D03*
X131330700Y41846500D03*
X131330700Y41211500D03*
X131330700Y40576500D03*
X131330700Y39941500D03*
X131330700Y39306500D03*
X131330700Y38671500D03*
X131330700Y38036500D03*
X136639300Y38036500D03*
X136639300Y38671500D03*
X136639300Y39306500D03*
X136639300Y39941500D03*
X136639300Y40576500D03*
X136639300Y41211500D03*
X136639300Y41846500D03*
X136639300Y42481500D03*
%TD*%
D16*
%TO.C,U46*%
X94215000Y46159500D03*
X94865000Y46159500D03*
X95515000Y46159500D03*
X96165000Y46159500D03*
X96815000Y46159500D03*
X97465000Y46159500D03*
X98115000Y46159500D03*
X98765000Y46159500D03*
X99415000Y46159500D03*
X100065000Y46159500D03*
X100715000Y46159500D03*
X101365000Y46159500D03*
X101365000Y51884500D03*
X100715000Y51884500D03*
X100065000Y51884500D03*
X99415000Y51884500D03*
X98765000Y51884500D03*
X98115000Y51884500D03*
X97465000Y51884500D03*
X96815000Y51884500D03*
X96165000Y51884500D03*
X95515000Y51884500D03*
X94865000Y51884500D03*
X94215000Y51884500D03*
%TD*%
D15*
%TO.C,U65*%
X106979000Y73220500D03*
X106329000Y73220500D03*
X105679000Y73220500D03*
X105029000Y73220500D03*
X104379000Y73220500D03*
X103729000Y73220500D03*
X103079000Y73220500D03*
X103079000Y67495500D03*
X103729000Y67495500D03*
X104379000Y67495500D03*
X105029000Y67495500D03*
X105679000Y67495500D03*
X106329000Y67495500D03*
X106979000Y67495500D03*
%TD*%
D36*
%TO.C,U7*%
X45533000Y122047000D03*
X45533000Y119507000D03*
D37*
X52258000Y122282000D03*
X52258000Y116732000D03*
X57108000Y122282000D03*
X57108000Y116732000D03*
D36*
X45533000Y116967000D03*
%TD*%
D12*
%TO.C,CN14*%
X77462000Y57670000D03*
X77462000Y58170000D03*
X77462000Y58670000D03*
X77462000Y59170000D03*
X76462000Y59170000D03*
X76462000Y58670000D03*
X76462000Y58170000D03*
X76462000Y57670000D03*
%TD*%
D10*
%TO.C,C103*%
X118265000Y65913000D03*
X119225000Y65913000D03*
%TD*%
D16*
%TO.C,U19*%
X116567000Y24823500D03*
X117217000Y24823500D03*
X117867000Y24823500D03*
X118517000Y24823500D03*
X119167000Y24823500D03*
X119817000Y24823500D03*
X120467000Y24823500D03*
X121117000Y24823500D03*
X121767000Y24823500D03*
X122417000Y24823500D03*
X123067000Y24823500D03*
X123717000Y24823500D03*
X123717000Y30548500D03*
X123067000Y30548500D03*
X122417000Y30548500D03*
X121767000Y30548500D03*
X121117000Y30548500D03*
X120467000Y30548500D03*
X119817000Y30548500D03*
X119167000Y30548500D03*
X118517000Y30548500D03*
X117867000Y30548500D03*
X117217000Y30548500D03*
X116567000Y30548500D03*
%TD*%
D11*
%TO.C,R132*%
X126113000Y21590000D03*
X125093000Y21590000D03*
%TD*%
D10*
%TO.C,C14*%
X162969000Y23241000D03*
X163929000Y23241000D03*
%TD*%
D14*
%TO.C,R25*%
X84072000Y42926000D03*
X85092000Y42926000D03*
%TD*%
D12*
%TO.C,RN11*%
X73779000Y49669000D03*
X73779000Y50169000D03*
X73779000Y50669000D03*
X73779000Y51169000D03*
X72779000Y51169000D03*
X72779000Y50669000D03*
X72779000Y50169000D03*
X72779000Y49669000D03*
%TD*%
D27*
%TO.C,C6*%
X41684500Y115043000D03*
X39959500Y115043000D03*
%TD*%
D13*
%TO.C,U30*%
X108978700Y42481500D03*
X108978700Y41846500D03*
X108978700Y41211500D03*
X108978700Y40576500D03*
X108978700Y39941500D03*
X108978700Y39306500D03*
X108978700Y38671500D03*
X108978700Y38036500D03*
X114287300Y38036500D03*
X114287300Y38671500D03*
X114287300Y39306500D03*
X114287300Y39941500D03*
X114287300Y40576500D03*
X114287300Y41211500D03*
X114287300Y41846500D03*
X114287300Y42481500D03*
%TD*%
D14*
%TO.C,R141*%
X151128000Y21590000D03*
X152148000Y21590000D03*
%TD*%
D12*
%TO.C,RN19*%
X73779000Y71005000D03*
X73779000Y71505000D03*
X73779000Y72005000D03*
X73779000Y72505000D03*
X72779000Y72505000D03*
X72779000Y72005000D03*
X72779000Y71505000D03*
X72779000Y71005000D03*
%TD*%
D15*
%TO.C,U38*%
X151683000Y51884500D03*
X151033000Y51884500D03*
X150383000Y51884500D03*
X149733000Y51884500D03*
X149083000Y51884500D03*
X148433000Y51884500D03*
X147783000Y51884500D03*
X147783000Y46159500D03*
X148433000Y46159500D03*
X149083000Y46159500D03*
X149733000Y46159500D03*
X150383000Y46159500D03*
X151033000Y46159500D03*
X151683000Y46159500D03*
%TD*%
D10*
%TO.C,C113*%
X95913000Y76581000D03*
X96873000Y76581000D03*
%TD*%
D11*
%TO.C,R76*%
X81409000Y74930000D03*
X80389000Y74930000D03*
%TD*%
D27*
%TO.C,C7*%
X41684500Y118345000D03*
X39959500Y118345000D03*
%TD*%
D23*
%TO.C,C16*%
X65089000Y115951000D03*
X66814000Y115951000D03*
%TD*%
D15*
%TO.C,U47*%
X84627000Y62552500D03*
X83977000Y62552500D03*
X83327000Y62552500D03*
X82677000Y62552500D03*
X82027000Y62552500D03*
X81377000Y62552500D03*
X80727000Y62552500D03*
X80727000Y56827500D03*
X81377000Y56827500D03*
X82027000Y56827500D03*
X82677000Y56827500D03*
X83327000Y56827500D03*
X83977000Y56827500D03*
X84627000Y56827500D03*
%TD*%
D11*
%TO.C,R24*%
X81409000Y42926000D03*
X80389000Y42926000D03*
%TD*%
D15*
%TO.C,U71*%
X84627000Y83888500D03*
X83977000Y83888500D03*
X83327000Y83888500D03*
X82677000Y83888500D03*
X82027000Y83888500D03*
X81377000Y83888500D03*
X80727000Y83888500D03*
X80727000Y78163500D03*
X81377000Y78163500D03*
X82027000Y78163500D03*
X82677000Y78163500D03*
X83327000Y78163500D03*
X83977000Y78163500D03*
X84627000Y78163500D03*
%TD*%
D14*
%TO.C,R117*%
X106424000Y96266000D03*
X107444000Y96266000D03*
%TD*%
D17*
%TO.C,U9*%
X58481000Y90799500D03*
X57531000Y90799500D03*
X56581000Y90799500D03*
X56581000Y88524500D03*
X58481000Y88524500D03*
%TD*%
D10*
%TO.C,C43*%
X118265000Y33909000D03*
X119225000Y33909000D03*
%TD*%
D14*
%TO.C,R29*%
X151128000Y42926000D03*
X152148000Y42926000D03*
%TD*%
D11*
%TO.C,R31*%
X103761000Y33782000D03*
X102741000Y33782000D03*
%TD*%
D14*
%TO.C,R121*%
X84072000Y106934000D03*
X85092000Y106934000D03*
%TD*%
D13*
%TO.C,U42*%
X131330700Y53149500D03*
X131330700Y52514500D03*
X131330700Y51879500D03*
X131330700Y51244500D03*
X131330700Y50609500D03*
X131330700Y49974500D03*
X131330700Y49339500D03*
X131330700Y48704500D03*
X136639300Y48704500D03*
X136639300Y49339500D03*
X136639300Y49974500D03*
X136639300Y50609500D03*
X136639300Y51244500D03*
X136639300Y51879500D03*
X136639300Y52514500D03*
X136639300Y53149500D03*
%TD*%
D11*
%TO.C,R64*%
X148465000Y64262000D03*
X147445000Y64262000D03*
%TD*%
%TO.C,R143*%
X103761000Y97790000D03*
X102741000Y97790000D03*
%TD*%
D12*
%TO.C,RN6*%
X73779000Y36334000D03*
X73779000Y36834000D03*
X73779000Y37334000D03*
X73779000Y37834000D03*
X72779000Y37834000D03*
X72779000Y37334000D03*
X72779000Y36834000D03*
X72779000Y36334000D03*
%TD*%
D10*
%TO.C,C143*%
X140617000Y87249000D03*
X141577000Y87249000D03*
%TD*%
D11*
%TO.C,R11*%
X148465000Y23114000D03*
X147445000Y23114000D03*
%TD*%
D16*
%TO.C,U67*%
X116567000Y67495500D03*
X117217000Y67495500D03*
X117867000Y67495500D03*
X118517000Y67495500D03*
X119167000Y67495500D03*
X119817000Y67495500D03*
X120467000Y67495500D03*
X121117000Y67495500D03*
X121767000Y67495500D03*
X122417000Y67495500D03*
X123067000Y67495500D03*
X123717000Y67495500D03*
X123717000Y73220500D03*
X123067000Y73220500D03*
X122417000Y73220500D03*
X121767000Y73220500D03*
X121117000Y73220500D03*
X120467000Y73220500D03*
X119817000Y73220500D03*
X119167000Y73220500D03*
X118517000Y73220500D03*
X117867000Y73220500D03*
X117217000Y73220500D03*
X116567000Y73220500D03*
%TD*%
D13*
%TO.C,U66*%
X108978700Y74485500D03*
X108978700Y73850500D03*
X108978700Y73215500D03*
X108978700Y72580500D03*
X108978700Y71945500D03*
X108978700Y71310500D03*
X108978700Y70675500D03*
X108978700Y70040500D03*
X114287300Y70040500D03*
X114287300Y70675500D03*
X114287300Y71310500D03*
X114287300Y71945500D03*
X114287300Y72580500D03*
X114287300Y73215500D03*
X114287300Y73850500D03*
X114287300Y74485500D03*
%TD*%
D15*
%TO.C,U104*%
X129331000Y19880500D03*
X128681000Y19880500D03*
X128031000Y19880500D03*
X127381000Y19880500D03*
X126731000Y19880500D03*
X126081000Y19880500D03*
X125431000Y19880500D03*
X125431000Y14155500D03*
X126081000Y14155500D03*
X126731000Y14155500D03*
X127381000Y14155500D03*
X128031000Y14155500D03*
X128681000Y14155500D03*
X129331000Y14155500D03*
%TD*%
D11*
%TO.C,R116*%
X103761000Y96266000D03*
X102741000Y96266000D03*
%TD*%
D13*
%TO.C,U108*%
X108978700Y21145500D03*
X108978700Y20510500D03*
X108978700Y19875500D03*
X108978700Y19240500D03*
X108978700Y18605500D03*
X108978700Y17970500D03*
X108978700Y17335500D03*
X108978700Y16700500D03*
X114287300Y16700500D03*
X114287300Y17335500D03*
X114287300Y17970500D03*
X114287300Y18605500D03*
X114287300Y19240500D03*
X114287300Y19875500D03*
X114287300Y20510500D03*
X114287300Y21145500D03*
%TD*%
D16*
%TO.C,U112*%
X161271000Y14155500D03*
X161921000Y14155500D03*
X162571000Y14155500D03*
X163221000Y14155500D03*
X163871000Y14155500D03*
X164521000Y14155500D03*
X165171000Y14155500D03*
X165821000Y14155500D03*
X166471000Y14155500D03*
X167121000Y14155500D03*
X167771000Y14155500D03*
X168421000Y14155500D03*
X168421000Y19880500D03*
X167771000Y19880500D03*
X167121000Y19880500D03*
X166471000Y19880500D03*
X165821000Y19880500D03*
X165171000Y19880500D03*
X164521000Y19880500D03*
X163871000Y19880500D03*
X163221000Y19880500D03*
X162571000Y19880500D03*
X161921000Y19880500D03*
X161271000Y19880500D03*
%TD*%
D20*
%TO.C,U122*%
X202125500Y58670000D03*
X202125500Y59320000D03*
X202125500Y59970000D03*
X202125500Y60620000D03*
X202125500Y61270000D03*
X202125500Y61920000D03*
X202125500Y62570000D03*
X202125500Y63220000D03*
X202125500Y63870000D03*
X202125500Y64520000D03*
X196400500Y64520000D03*
X196400500Y63870000D03*
X196400500Y63220000D03*
X196400500Y62570000D03*
X196400500Y61920000D03*
X196400500Y61270000D03*
X196400500Y60620000D03*
X196400500Y59970000D03*
X196400500Y59320000D03*
X196400500Y58670000D03*
%TD*%
D12*
%TO.C,RN3*%
X73779000Y28333000D03*
X73779000Y28833000D03*
X73779000Y29333000D03*
X73779000Y29833000D03*
X72779000Y29833000D03*
X72779000Y29333000D03*
X72779000Y28833000D03*
X72779000Y28333000D03*
%TD*%
D27*
%TO.C,C17*%
X84042000Y121671500D03*
X82317000Y121671500D03*
%TD*%
D14*
%TO.C,R125*%
X151128000Y106934000D03*
X152148000Y106934000D03*
%TD*%
D16*
%TO.C,U79*%
X116567000Y78163500D03*
X117217000Y78163500D03*
X117867000Y78163500D03*
X118517000Y78163500D03*
X119167000Y78163500D03*
X119817000Y78163500D03*
X120467000Y78163500D03*
X121117000Y78163500D03*
X121767000Y78163500D03*
X122417000Y78163500D03*
X123067000Y78163500D03*
X123717000Y78163500D03*
X123717000Y83888500D03*
X123067000Y83888500D03*
X122417000Y83888500D03*
X121767000Y83888500D03*
X121117000Y83888500D03*
X120467000Y83888500D03*
X119817000Y83888500D03*
X119167000Y83888500D03*
X118517000Y83888500D03*
X117867000Y83888500D03*
X117217000Y83888500D03*
X116567000Y83888500D03*
%TD*%
D14*
%TO.C,R33*%
X106424000Y42926000D03*
X107444000Y42926000D03*
%TD*%
D21*
%TO.C,C190*%
X198742000Y114808000D03*
X200292000Y114808000D03*
%TD*%
D11*
%TO.C,R35*%
X126113000Y33782000D03*
X125093000Y33782000D03*
%TD*%
D15*
%TO.C,U110*%
X151683000Y19880500D03*
X151033000Y19880500D03*
X150383000Y19880500D03*
X149733000Y19880500D03*
X149083000Y19880500D03*
X148433000Y19880500D03*
X147783000Y19880500D03*
X147783000Y14155500D03*
X148433000Y14155500D03*
X149083000Y14155500D03*
X149733000Y14155500D03*
X150383000Y14155500D03*
X151033000Y14155500D03*
X151683000Y14155500D03*
%TD*%
D11*
%TO.C,R123*%
X148465000Y97790000D03*
X147445000Y97790000D03*
%TD*%
D12*
%TO.C,RN16*%
X73779000Y63004000D03*
X73779000Y63504000D03*
X73779000Y64004000D03*
X73779000Y64504000D03*
X72779000Y64504000D03*
X72779000Y64004000D03*
X72779000Y63504000D03*
X72779000Y63004000D03*
%TD*%
%TO.C,RN33*%
X73779000Y97675000D03*
X73779000Y98175000D03*
X73779000Y98675000D03*
X73779000Y99175000D03*
X72779000Y99175000D03*
X72779000Y98675000D03*
X72779000Y98175000D03*
X72779000Y97675000D03*
%TD*%
D14*
%TO.C,R53*%
X84072000Y53594000D03*
X85092000Y53594000D03*
%TD*%
D15*
%TO.C,U32*%
X129331000Y41216500D03*
X128681000Y41216500D03*
X128031000Y41216500D03*
X127381000Y41216500D03*
X126731000Y41216500D03*
X126081000Y41216500D03*
X125431000Y41216500D03*
X125431000Y35491500D03*
X126081000Y35491500D03*
X126731000Y35491500D03*
X127381000Y35491500D03*
X128031000Y35491500D03*
X128681000Y35491500D03*
X129331000Y35491500D03*
%TD*%
D14*
%TO.C,R142*%
X106678000Y97790000D03*
X107698000Y97790000D03*
%TD*%
D24*
%TO.C,J10*%
X26522000Y63828000D03*
X32252000Y63828000D03*
X26522000Y63028000D03*
X32252000Y63028000D03*
X26522000Y62228000D03*
X32252000Y62228000D03*
X26522000Y61428000D03*
X32252000Y61428000D03*
X26522000Y60628000D03*
X32252000Y60628000D03*
X26522000Y59828000D03*
X32252000Y59828000D03*
X26522000Y59028000D03*
X32252000Y59028000D03*
X26522000Y58228000D03*
X32252000Y58228000D03*
X26522000Y57428000D03*
X32252000Y57428000D03*
X26522000Y56628000D03*
X32252000Y56628000D03*
X26522000Y55828000D03*
X32252000Y55828000D03*
X26522000Y55028000D03*
X32252000Y55028000D03*
X26522000Y54228000D03*
X32252000Y54228000D03*
X26522000Y53428000D03*
X32252000Y53428000D03*
X26522000Y52628000D03*
X32252000Y52628000D03*
X26522000Y51828000D03*
X32252000Y51828000D03*
X26522000Y51028000D03*
X32252000Y51028000D03*
X26522000Y50228000D03*
X32252000Y50228000D03*
X26522000Y49428000D03*
X32252000Y49428000D03*
X26522000Y48628000D03*
X32252000Y48628000D03*
X26522000Y43828000D03*
X32252000Y43828000D03*
X26522000Y43028000D03*
X32252000Y43028000D03*
X26522000Y42228000D03*
X32252000Y42228000D03*
X26522000Y41428000D03*
X32252000Y41428000D03*
X26522000Y40628000D03*
X32252000Y40628000D03*
X26522000Y39828000D03*
X32252000Y39828000D03*
X26522000Y39028000D03*
X32252000Y39028000D03*
X26522000Y38228000D03*
X32252000Y38228000D03*
X26522000Y37428000D03*
X32252000Y37428000D03*
X26522000Y36628000D03*
X32252000Y36628000D03*
X26522000Y35828000D03*
X32252000Y35828000D03*
X26522000Y35028000D03*
X32252000Y35028000D03*
X26522000Y34228000D03*
X32252000Y34228000D03*
X26522000Y33428000D03*
X32252000Y33428000D03*
X26522000Y32628000D03*
X32252000Y32628000D03*
X26522000Y31828000D03*
X32252000Y31828000D03*
X26522000Y31028000D03*
X32252000Y31028000D03*
X26522000Y30228000D03*
X32252000Y30228000D03*
X26522000Y29428000D03*
X32252000Y29428000D03*
X26522000Y28628000D03*
X32252000Y28628000D03*
D25*
X29387000Y64293000D03*
D26*
X29387000Y59403000D03*
X29387000Y53053000D03*
D25*
X29387000Y48163000D03*
X29387000Y44293000D03*
D26*
X29387000Y39403000D03*
X29387000Y33053000D03*
D25*
X29387000Y28163000D03*
%TD*%
D24*
%TO.C,J11*%
X13922000Y63828000D03*
X19652000Y63828000D03*
X13922000Y63028000D03*
X19652000Y63028000D03*
X13922000Y62228000D03*
X19652000Y62228000D03*
X13922000Y61428000D03*
X19652000Y61428000D03*
X13922000Y60628000D03*
X19652000Y60628000D03*
X13922000Y59828000D03*
X19652000Y59828000D03*
X13922000Y59028000D03*
X19652000Y59028000D03*
X13922000Y58228000D03*
X19652000Y58228000D03*
X13922000Y57428000D03*
X19652000Y57428000D03*
X13922000Y56628000D03*
X19652000Y56628000D03*
X13922000Y55828000D03*
X19652000Y55828000D03*
X13922000Y55028000D03*
X19652000Y55028000D03*
X13922000Y54228000D03*
X19652000Y54228000D03*
X13922000Y53428000D03*
X19652000Y53428000D03*
X13922000Y52628000D03*
X19652000Y52628000D03*
X13922000Y51828000D03*
X19652000Y51828000D03*
X13922000Y51028000D03*
X19652000Y51028000D03*
X13922000Y50228000D03*
X19652000Y50228000D03*
X13922000Y49428000D03*
X19652000Y49428000D03*
X13922000Y48628000D03*
X19652000Y48628000D03*
X13922000Y43828000D03*
X19652000Y43828000D03*
X13922000Y43028000D03*
X19652000Y43028000D03*
X13922000Y42228000D03*
X19652000Y42228000D03*
X13922000Y41428000D03*
X19652000Y41428000D03*
X13922000Y40628000D03*
X19652000Y40628000D03*
X13922000Y39828000D03*
X19652000Y39828000D03*
X13922000Y39028000D03*
X19652000Y39028000D03*
X13922000Y38228000D03*
X19652000Y38228000D03*
X13922000Y37428000D03*
X19652000Y37428000D03*
X13922000Y36628000D03*
X19652000Y36628000D03*
X13922000Y35828000D03*
X19652000Y35828000D03*
X13922000Y35028000D03*
X19652000Y35028000D03*
X13922000Y34228000D03*
X19652000Y34228000D03*
X13922000Y33428000D03*
X19652000Y33428000D03*
X13922000Y32628000D03*
X19652000Y32628000D03*
X13922000Y31828000D03*
X19652000Y31828000D03*
X13922000Y31028000D03*
X19652000Y31028000D03*
X13922000Y30228000D03*
X19652000Y30228000D03*
X13922000Y29428000D03*
X19652000Y29428000D03*
X13922000Y28628000D03*
X19652000Y28628000D03*
D25*
X16787000Y64293000D03*
D26*
X16787000Y59403000D03*
X16787000Y53053000D03*
D25*
X16787000Y48163000D03*
X16787000Y44293000D03*
D26*
X16787000Y39403000D03*
X16787000Y33053000D03*
D25*
X16787000Y28163000D03*
%TD*%
D11*
%TO.C,R44*%
X148465000Y53594000D03*
X147445000Y53594000D03*
%TD*%
D12*
%TO.C,CN24*%
X77462000Y84340000D03*
X77462000Y84840000D03*
X77462000Y85340000D03*
X77462000Y85840000D03*
X76462000Y85840000D03*
X76462000Y85340000D03*
X76462000Y84840000D03*
X76462000Y84340000D03*
%TD*%
D13*
%TO.C,U90*%
X131330700Y95821500D03*
X131330700Y95186500D03*
X131330700Y94551500D03*
X131330700Y93916500D03*
X131330700Y93281500D03*
X131330700Y92646500D03*
X131330700Y92011500D03*
X131330700Y91376500D03*
X136639300Y91376500D03*
X136639300Y92011500D03*
X136639300Y92646500D03*
X136639300Y93281500D03*
X136639300Y93916500D03*
X136639300Y94551500D03*
X136639300Y95186500D03*
X136639300Y95821500D03*
%TD*%
D15*
%TO.C,U80*%
X151683000Y83888500D03*
X151033000Y83888500D03*
X150383000Y83888500D03*
X149733000Y83888500D03*
X149083000Y83888500D03*
X148433000Y83888500D03*
X147783000Y83888500D03*
X147783000Y78163500D03*
X148433000Y78163500D03*
X149083000Y78163500D03*
X149733000Y78163500D03*
X150383000Y78163500D03*
X151033000Y78163500D03*
X151683000Y78163500D03*
%TD*%
D12*
%TO.C,CN19*%
X77716000Y71005000D03*
X77716000Y71505000D03*
X77716000Y72005000D03*
X77716000Y72505000D03*
X76716000Y72505000D03*
X76716000Y72005000D03*
X76716000Y71505000D03*
X76716000Y71005000D03*
%TD*%
D21*
%TO.C,C192*%
X198488000Y76581000D03*
X200038000Y76581000D03*
%TD*%
D11*
%TO.C,R144*%
X103761000Y106934000D03*
X102741000Y106934000D03*
%TD*%
D16*
%TO.C,U118*%
X138919000Y99499500D03*
X139569000Y99499500D03*
X140219000Y99499500D03*
X140869000Y99499500D03*
X141519000Y99499500D03*
X142169000Y99499500D03*
X142819000Y99499500D03*
X143469000Y99499500D03*
X144119000Y99499500D03*
X144769000Y99499500D03*
X145419000Y99499500D03*
X146069000Y99499500D03*
X146069000Y105224500D03*
X145419000Y105224500D03*
X144769000Y105224500D03*
X144119000Y105224500D03*
X143469000Y105224500D03*
X142819000Y105224500D03*
X142169000Y105224500D03*
X141519000Y105224500D03*
X140869000Y105224500D03*
X140219000Y105224500D03*
X139569000Y105224500D03*
X138919000Y105224500D03*
%TD*%
D14*
%TO.C,R138*%
X151382000Y12446000D03*
X152402000Y12446000D03*
%TD*%
D11*
%TO.C,R63*%
X148465000Y55118000D03*
X147445000Y55118000D03*
%TD*%
M02*
