M48
; DRILL file {KiCad 7.0.1} date Wed Apr  5 17:44:00 2023
; FORMAT={-:-/ absolute / inch / decimal}
; #@! TF.CreationDate,2023-04-05T17:44:00-07:00
; #@! TF.GenerationSoftware,Kicad,Pcbnew,7.0.1
; #@! TF.FileFunction,MixedPlating,1,4
FMAT,2
INCH
; #@! TA.AperFunction,Plated,PTH,ViaDrill
T1C0.0100
; #@! TA.AperFunction,Plated,PTH,ComponentDrill
T2C0.0354
; #@! TA.AperFunction,Plated,PTH,ComponentDrill
T3C0.0394
; #@! TA.AperFunction,Plated,PTH,ComponentDrill
T4C0.0591
; #@! TA.AperFunction,Plated,PTH,ComponentDrill
T5C0.0630
; #@! TA.AperFunction,Plated,PTH,ComponentDrill
T6C0.0669
; #@! TA.AperFunction,NonPlated,NPTH,ComponentDrill
T7C0.0402
; #@! TA.AperFunction,NonPlated,NPTH,ComponentDrill
T8C0.0500
%
G90
G05
T1
X0.39Y1.69
X0.4Y1.73
X0.41Y1.77
X0.42Y2.41
X0.42Y2.19
X0.42Y2.11
X0.42Y2.01
X0.42Y1.81
X0.43Y2.07
X0.43Y1.85
X0.435Y2.45
X0.44Y2.03
X0.45Y2.21
X0.455Y2.49
X0.47Y2.25
X0.475Y2.53
X0.615Y2.57
X0.62Y2.15
X0.85Y2.55
X0.87Y2.51
X0.875Y2.29
X0.885Y2.09
X0.895Y2.47
X0.895Y2.17
X0.895Y2.05
X0.9Y2.27
X0.905Y1.99
X0.91Y2.23
X0.915Y1.87
X0.92Y2.43
X0.925Y2.13
X0.925Y1.83
X0.935Y1.79
X0.94Y2.61
X0.945Y1.75
X0.955Y1.71
X0.96Y2.65
X0.965Y1.67
X0.965Y0.935
X0.98Y2.67
X1.05Y2.71
X1.12Y1.61
X1.12Y1.57
X1.12Y1.45
X1.12Y1.39
X1.12Y1.35
X1.12Y1.31
X1.125Y1.65
X1.125Y1.27
X1.125Y1.23
X1.235Y3.03
X1.24Y2.99
X1.24Y2.95
X1.24Y2.91
X1.24Y2.87
X1.355Y3.01
X1.37Y2.97
X1.38Y2.93
X1.39Y1.41
X1.39Y1.37
X1.395Y2.89
X1.4Y2.85
X1.4Y1.29
X1.4Y1.25
X1.4Y1.21
X1.41Y1.63
X1.41Y1.59
X1.41Y1.33
X1.415Y1.43
X1.42Y2.69
X1.425Y2.63
X1.425Y1.19
X1.43Y2.545
X1.435Y2.83
X1.435Y1.15
X1.435Y1.01
X1.455Y0.99
X1.465Y0.93
X1.475Y0.89
X1.55Y3.05
X1.555Y3.305
X1.57Y4.535
X1.575Y4.7
X1.575Y4.625
X1.575Y4.58
X1.58Y4.73
X1.595Y3.07
X1.625Y0.77
X1.635Y3.835
X1.635Y0.81
X1.64Y4.54
X1.645Y3.09
X1.645Y0.85
X1.69Y4.605
X1.695Y3.11
X1.72Y3.28
X1.74Y4.605
X1.755Y3.535
X1.795Y4.605
X1.835Y3.13
X1.84Y0.75
X1.85Y0.79
X1.86Y4.605
X1.865Y0.83
X1.875Y3.71
X1.88Y0.87
X1.885Y3.535
X1.89Y0.91
X1.91Y0.97
X1.92Y1.03
X1.93Y1.17
X1.93Y0.95
X1.94Y3.31
X1.94Y3.27
X1.94Y0.73
X1.94Y0.61
X1.96Y3.29
X1.96Y3.25
X1.96Y0.59
X1.98Y0.57
X2.1Y0.47
X2.12Y0.49
X2.14Y0.55
X2.14Y0.51
X2.16Y0.53
X2.2Y3.53
X2.205Y4.69
X2.205Y4.635
X2.205Y4.535
X2.225Y4.6
X2.25Y4.54
X2.255Y4.71
X2.26Y4.645
X2.285Y4.595
X2.29Y4.535
X2.295Y4.72
X2.38Y1.895
X2.39Y3.615
X2.405Y3.35
X2.42Y3.39
X2.425Y3.33
X2.435Y3.43
X2.44Y3.37
X2.455Y3.41
X2.46Y3.47
X2.48Y3.49
X2.48Y3.45
X2.535Y3.77
X2.5475Y3.51
X2.55Y3.73
X2.55Y3.55
X2.56Y4.67
X2.57Y3.75
X2.57Y3.71
X2.57Y3.53
X2.58Y3.67
X2.6Y3.69
X2.62Y4.23
X2.635Y4.605
X2.64Y4.21
X2.66Y4.19
X2.68Y4.17
X2.69Y4.11
X2.7Y4.15
X2.71Y4.09
X2.71Y3.97
X2.72Y4.13
X2.73Y3.95
X2.75Y3.93
X2.77Y3.91
X2.77Y3.85
X2.79Y3.89
X2.79Y3.81
X2.81Y3.87
X2.81Y3.83
X2.81Y3.79
X2.865Y4.035
X2.865Y3.615
X2.865Y3.195
X2.865Y2.775
X2.865Y2.355
X2.865Y1.935
X2.865Y1.515
X2.865Y1.095
X2.865Y0.675
X2.925Y4.035
X2.925Y3.615
X2.925Y3.195
X2.925Y2.775
X2.925Y2.355
X2.925Y1.935
X2.925Y1.515
X2.925Y1.095
X2.925Y0.675
X2.95Y4.23
X2.95Y4.19
X2.95Y4.15
X2.95Y4.11
X2.95Y3.97
X2.95Y3.93
X2.95Y3.89
X2.95Y3.85
X2.95Y3.81
X2.95Y3.77
X2.95Y3.73
X2.95Y3.69
X2.95Y3.55
X2.95Y3.51
X2.95Y3.47
X2.95Y3.43
X2.95Y3.39
X2.95Y3.35
X2.95Y3.31
X2.95Y3.27
X2.95Y3.13
X2.95Y3.09
X2.95Y3.05
X2.95Y3.01
X2.95Y2.97
X2.95Y2.93
X2.95Y2.89
X2.95Y2.85
X2.95Y2.71
X2.95Y2.67
X2.95Y2.63
X2.95Y2.59
X2.95Y2.55
X2.95Y2.51
X2.95Y2.47
X2.95Y2.43
X2.95Y2.29
X2.95Y2.25
X2.95Y2.21
X2.95Y2.17
X2.95Y2.13
X2.95Y2.09
X2.95Y2.05
X2.95Y2.01
X2.95Y1.87
X2.95Y1.83
X2.95Y1.79
X2.95Y1.75
X2.95Y1.71
X2.95Y1.67
X2.95Y1.63
X2.95Y1.59
X2.95Y1.45
X2.95Y1.41
X2.95Y1.37
X2.95Y1.33
X2.95Y1.29
X2.95Y1.25
X2.95Y1.21
X2.95Y1.17
X2.95Y1.03
X2.95Y0.99
X2.95Y0.95
X2.95Y0.91
X2.95Y0.87
X2.95Y0.83
X2.95Y0.79
X2.95Y0.75
X2.95Y0.61
X2.95Y0.57
X2.95Y0.53
X2.95Y0.49
X2.97Y4.21
X2.97Y4.17
X2.97Y4.13
X2.97Y4.09
X2.97Y3.95
X2.97Y3.91
X2.97Y3.91
X2.97Y3.87
X2.97Y3.83
X2.97Y3.79
X2.97Y3.75
X2.97Y3.71
X2.97Y3.67
X2.97Y3.53
X2.97Y3.49
X2.97Y3.45
X2.97Y3.41
X2.97Y3.37
X2.97Y3.33
X2.97Y3.29
X2.97Y3.25
X2.97Y3.11
X2.97Y3.07
X2.97Y3.03
X2.97Y2.99
X2.97Y2.95
X2.97Y2.91
X2.97Y2.87
X2.97Y2.83
X2.97Y2.69
X2.97Y2.65
X2.97Y2.61
X2.97Y2.57
X2.97Y2.53
X2.97Y2.49
X2.97Y2.45
X2.97Y2.41
X2.97Y2.27
X2.97Y2.23
X2.97Y2.19
X2.97Y2.15
X2.97Y2.11
X2.97Y2.07
X2.97Y2.03
X2.97Y1.99
X2.97Y1.85
X2.97Y1.81
X2.97Y1.77
X2.97Y1.73
X2.97Y1.69
X2.97Y1.65
X2.97Y1.61
X2.97Y1.57
X2.97Y1.43
X2.97Y1.39
X2.97Y1.35
X2.97Y1.31
X2.97Y1.27
X2.97Y1.23
X2.97Y1.19
X2.97Y1.15
X2.97Y1.01
X2.97Y0.97
X2.97Y0.93
X2.97Y0.89
X2.97Y0.85
X2.97Y0.81
X2.97Y0.77
X2.97Y0.73
X2.97Y0.59
X2.97Y0.55
X2.97Y0.51
X2.97Y0.47
X3.105Y4.21
X3.105Y4.17
X3.105Y4.13
X3.105Y4.09
X3.105Y3.95
X3.105Y3.91
X3.105Y3.87
X3.105Y3.83
X3.105Y3.79
X3.105Y3.75
X3.105Y3.71
X3.105Y3.67
X3.105Y3.53
X3.105Y3.49
X3.105Y3.45
X3.105Y3.41
X3.105Y3.37
X3.105Y3.33
X3.105Y3.29
X3.105Y3.25
X3.105Y3.11
X3.105Y3.07
X3.105Y3.03
X3.105Y2.99
X3.105Y2.95
X3.105Y2.91
X3.105Y2.87
X3.105Y2.83
X3.105Y2.69
X3.105Y2.65
X3.105Y2.61
X3.105Y2.57
X3.105Y2.53
X3.105Y2.49
X3.105Y2.45
X3.105Y2.41
X3.105Y2.27
X3.105Y2.23
X3.105Y2.19
X3.105Y2.15
X3.105Y2.11
X3.105Y2.07
X3.105Y2.03
X3.105Y1.99
X3.105Y1.85
X3.105Y1.81
X3.105Y1.77
X3.105Y1.73
X3.105Y1.69
X3.105Y1.65
X3.105Y1.61
X3.105Y1.57
X3.105Y1.43
X3.105Y1.39
X3.105Y1.35
X3.105Y1.31
X3.105Y1.27
X3.105Y1.23
X3.105Y1.19
X3.105Y1.15
X3.105Y1.01
X3.105Y0.97
X3.105Y0.93
X3.105Y0.89
X3.105Y0.85
X3.105Y0.81
X3.105Y0.77
X3.105Y0.73
X3.105Y0.59
X3.105Y0.55
X3.105Y0.51
X3.105Y0.47
X3.125Y4.23
X3.125Y4.19
X3.125Y4.15
X3.125Y4.11
X3.125Y3.97
X3.125Y3.93
X3.125Y3.89
X3.125Y3.85
X3.125Y3.81
X3.125Y3.77
X3.125Y3.73
X3.125Y3.69
X3.125Y3.55
X3.125Y3.51
X3.125Y3.47
X3.125Y3.43
X3.125Y3.39
X3.125Y3.35
X3.125Y3.31
X3.125Y3.27
X3.125Y3.13
X3.125Y3.09
X3.125Y3.05
X3.125Y3.01
X3.125Y2.97
X3.125Y2.93
X3.125Y2.89
X3.125Y2.85
X3.125Y2.71
X3.125Y2.67
X3.125Y2.63
X3.125Y2.59
X3.125Y2.55
X3.125Y2.51
X3.125Y2.47
X3.125Y2.43
X3.125Y2.29
X3.125Y2.25
X3.125Y2.21
X3.125Y2.17
X3.125Y2.13
X3.125Y2.09
X3.125Y2.05
X3.125Y2.01
X3.125Y1.87
X3.125Y1.83
X3.125Y1.79
X3.125Y1.75
X3.125Y1.71
X3.125Y1.67
X3.125Y1.63
X3.125Y1.59
X3.125Y1.45
X3.125Y1.41
X3.125Y1.37
X3.125Y1.33
X3.125Y1.29
X3.125Y1.25
X3.125Y1.21
X3.125Y1.17
X3.125Y1.03
X3.125Y0.99
X3.125Y0.95
X3.125Y0.91
X3.125Y0.87
X3.125Y0.83
X3.125Y0.79
X3.125Y0.75
X3.125Y0.61
X3.125Y0.57
X3.125Y0.53
X3.125Y0.49
X3.2008Y3.91
X3.2008Y3.49
X3.2008Y3.07
X3.2008Y2.65
X3.2008Y2.23
X3.2008Y1.81
X3.2008Y1.39
X3.2008Y0.97
X3.2008Y0.55
X3.21Y4.09
X3.21Y3.67
X3.21Y3.25
X3.21Y2.83
X3.21Y2.41
X3.21Y1.99
X3.21Y1.57
X3.21Y1.15
X3.21Y0.73
X3.24Y4.755
X3.25Y4.07
X3.25Y4.01
X3.25Y3.65
X3.25Y3.59
X3.25Y3.23
X3.25Y3.17
X3.25Y2.81
X3.25Y2.75
X3.25Y2.39
X3.25Y2.33
X3.25Y1.97
X3.25Y1.91
X3.25Y1.55
X3.25Y1.49
X3.25Y1.13
X3.25Y1.07
X3.25Y0.71
X3.25Y0.65
X3.29Y4.07
X3.29Y4.01
X3.29Y3.65
X3.29Y3.59
X3.29Y3.23
X3.29Y3.17
X3.29Y2.81
X3.29Y2.75
X3.29Y2.39
X3.29Y2.33
X3.29Y1.97
X3.29Y1.91
X3.29Y1.55
X3.29Y1.49
X3.29Y1.13
X3.29Y1.07
X3.29Y0.71
X3.29Y0.65
X3.3062Y4.17
X3.3062Y3.75
X3.3062Y3.33
X3.3062Y2.91
X3.3062Y2.49
X3.3062Y2.07
X3.3062Y1.65
X3.3062Y1.23
X3.3062Y0.81
X3.31Y4.695
X3.31Y3.83
X3.31Y3.41
X3.31Y2.99
X3.31Y2.57
X3.31Y2.15
X3.31Y1.73
X3.31Y1.31
X3.31Y0.89
X3.31Y0.47
X3.425Y4.755
X3.45Y4.365
X3.47Y4.03
X3.47Y3.61
X3.47Y3.19
X3.47Y2.77
X3.47Y2.35
X3.47Y1.93
X3.47Y1.51
X3.47Y1.09
X3.47Y0.67
X3.49Y4.09
X3.49Y4.05
X3.49Y4.01
X3.49Y3.67
X3.49Y3.63
X3.49Y3.59
X3.49Y3.25
X3.49Y3.21
X3.49Y3.17
X3.49Y2.83
X3.49Y2.79
X3.49Y2.75
X3.49Y2.41
X3.49Y2.37
X3.49Y2.33
X3.49Y1.99
X3.49Y1.95
X3.49Y1.91
X3.49Y1.57
X3.49Y1.53
X3.49Y1.49
X3.49Y1.15
X3.49Y1.11
X3.49Y1.07
X3.49Y0.73
X3.49Y0.69
X3.49Y0.65
X3.51Y4.7
X3.51Y4.07
X3.51Y3.65
X3.51Y3.23
X3.51Y2.81
X3.51Y2.39
X3.51Y1.97
X3.51Y1.55
X3.51Y1.13
X3.51Y0.71
X3.53Y4.01
X3.53Y3.59
X3.53Y3.17
X3.53Y2.75
X3.53Y2.33
X3.53Y1.91
X3.53Y1.49
X3.53Y1.07
X3.53Y0.65
X3.54Y4.17
X3.54Y3.75
X3.54Y3.33
X3.54Y2.91
X3.54Y2.49
X3.54Y2.07
X3.54Y1.65
X3.54Y1.23
X3.54Y0.81
X3.55Y4.07
X3.55Y3.91
X3.55Y3.65
X3.55Y3.49
X3.55Y3.23
X3.55Y3.07
X3.55Y2.81
X3.55Y2.65
X3.55Y2.39
X3.55Y2.23
X3.55Y1.97
X3.55Y1.81
X3.55Y1.55
X3.55Y1.39
X3.55Y1.13
X3.55Y0.97
X3.55Y0.71
X3.55Y0.55
X3.57Y3.83
X3.57Y3.41
X3.57Y2.99
X3.57Y2.57
X3.57Y2.15
X3.57Y1.73
X3.57Y1.31
X3.57Y0.89
X3.57Y0.47
X3.67Y4.37
X3.67Y4.01
X3.67Y3.59
X3.67Y3.17
X3.67Y2.75
X3.67Y2.33
X3.67Y1.91
X3.67Y1.49
X3.67Y1.07
X3.67Y0.65
X3.71Y4.07
X3.71Y4.03
X3.71Y3.65
X3.71Y3.61
X3.71Y3.23
X3.71Y3.19
X3.71Y2.81
X3.71Y2.77
X3.71Y2.39
X3.71Y2.35
X3.71Y1.97
X3.71Y1.93
X3.71Y1.55
X3.71Y1.51
X3.71Y1.13
X3.71Y1.09
X3.71Y0.71
X3.71Y0.67
X3.73Y4.05
X3.73Y4.01
X3.73Y3.63
X3.73Y3.59
X3.73Y3.21
X3.73Y3.17
X3.73Y2.79
X3.73Y2.75
X3.73Y2.37
X3.73Y2.33
X3.73Y1.95
X3.73Y1.91
X3.73Y1.53
X3.73Y1.49
X3.73Y1.11
X3.73Y1.07
X3.73Y0.69
X3.73Y0.65
X3.75Y4.29
X3.75Y4.07
X3.75Y3.65
X3.75Y3.23
X3.75Y2.81
X3.75Y2.39
X3.75Y1.97
X3.75Y1.55
X3.75Y1.13
X3.75Y0.71
X3.77Y4.405
X3.77Y4.05
X3.77Y3.63
X3.77Y3.21
X3.77Y2.79
X3.77Y2.37
X3.77Y1.95
X3.77Y1.53
X3.77Y1.11
X3.77Y0.69
X3.79Y4.425
X3.79Y4.07
X3.79Y3.65
X3.79Y3.23
X3.79Y2.81
X3.79Y2.39
X3.79Y1.97
X3.79Y1.55
X3.79Y1.13
X3.79Y0.71
X3.81Y4.405
X3.81Y4.05
X3.81Y3.63
X3.81Y3.21
X3.81Y2.79
X3.81Y2.37
X3.81Y1.95
X3.81Y1.53
X3.81Y1.11
X3.81Y0.69
X3.83Y4.425
X3.83Y4.07
X3.83Y3.65
X3.83Y3.23
X3.83Y2.81
X3.83Y2.39
X3.83Y1.97
X3.83Y1.55
X3.83Y1.13
X3.83Y0.71
X3.85Y4.405
X3.85Y4.05
X3.85Y3.63
X3.85Y3.21
X3.85Y2.79
X3.85Y2.37
X3.85Y1.95
X3.85Y1.53
X3.85Y1.11
X3.85Y0.69
X3.87Y4.425
X3.87Y4.07
X3.87Y3.65
X3.87Y3.23
X3.87Y2.81
X3.87Y2.39
X3.87Y1.97
X3.87Y1.55
X3.87Y1.13
X3.87Y0.71
X3.89Y4.405
X3.89Y4.05
X3.89Y3.63
X3.89Y3.21
X3.89Y2.79
X3.89Y2.37
X3.89Y1.95
X3.89Y1.53
X3.89Y1.11
X3.89Y0.69
X3.91Y4.425
X3.91Y4.07
X3.91Y3.65
X3.91Y3.23
X3.91Y2.81
X3.91Y2.39
X3.91Y1.97
X3.91Y1.55
X3.91Y1.13
X3.91Y0.71
X3.93Y3.99
X3.93Y3.57
X3.93Y3.15
X3.93Y2.73
X3.93Y2.31
X3.93Y1.89
X3.93Y1.47
X3.93Y1.05
X3.93Y0.63
X3.95Y4.27
X3.95Y4.03
X3.95Y3.61
X3.95Y3.19
X3.95Y2.77
X3.95Y2.35
X3.95Y1.93
X3.95Y1.51
X3.95Y1.09
X3.95Y0.67
X3.97Y4.25
X3.97Y4.01
X3.97Y3.59
X3.97Y3.17
X3.97Y2.75
X3.97Y2.33
X3.97Y1.91
X3.97Y1.49
X3.97Y1.07
X3.97Y0.65
X4.01Y4.07
X4.01Y4.01
X4.01Y3.65
X4.01Y3.59
X4.01Y3.23
X4.01Y3.17
X4.01Y2.81
X4.01Y2.75
X4.01Y2.39
X4.01Y2.33
X4.01Y1.97
X4.01Y1.91
X4.01Y1.55
X4.01Y1.49
X4.01Y1.13
X4.01Y1.07
X4.01Y0.71
X4.01Y0.65
X4.0808Y3.93
X4.0808Y3.51
X4.0808Y3.09
X4.0808Y2.67
X4.0808Y2.25
X4.0808Y1.83
X4.0808Y1.41
X4.0808Y0.99
X4.0808Y0.57
X4.0838Y4.11
X4.0838Y3.69
X4.0838Y3.27
X4.0838Y2.85
X4.0838Y2.43
X4.0838Y2.01
X4.0838Y1.59
X4.0838Y1.17
X4.0838Y0.75
X4.13Y4.07
X4.13Y4.01
X4.13Y3.65
X4.13Y3.59
X4.13Y3.23
X4.13Y3.17
X4.13Y2.81
X4.13Y2.75
X4.13Y2.39
X4.13Y2.33
X4.13Y1.97
X4.13Y1.91
X4.13Y1.55
X4.13Y1.49
X4.13Y1.13
X4.13Y1.07
X4.13Y0.71
X4.13Y0.65
X4.15Y4.325
X4.17Y4.07
X4.17Y4.01
X4.17Y3.65
X4.17Y3.59
X4.17Y3.23
X4.17Y3.17
X4.17Y2.81
X4.17Y2.75
X4.17Y2.39
X4.17Y2.33
X4.17Y1.97
X4.17Y1.91
X4.17Y1.55
X4.17Y1.49
X4.17Y1.13
X4.17Y1.07
X4.17Y0.71
X4.17Y0.65
X4.185Y3.85
X4.185Y3.43
X4.185Y3.01
X4.185Y2.59
X4.185Y2.17
X4.185Y1.75
X4.185Y1.33
X4.185Y0.91
X4.185Y0.49
X4.1862Y4.19
X4.1862Y3.77
X4.1862Y3.35
X4.1862Y2.93
X4.1862Y2.51
X4.1862Y2.09
X4.1862Y1.67
X4.1862Y1.25
X4.1862Y0.83
X4.35Y4.41
X4.35Y4.19
X4.35Y4.03
X4.35Y3.61
X4.35Y3.19
X4.35Y2.77
X4.35Y2.35
X4.35Y1.93
X4.35Y1.51
X4.35Y1.09
X4.35Y0.67
X4.37Y4.11
X4.37Y4.05
X4.37Y4.01
X4.37Y3.69
X4.37Y3.63
X4.37Y3.59
X4.37Y3.27
X4.37Y3.21
X4.37Y3.17
X4.37Y2.85
X4.37Y2.79
X4.37Y2.75
X4.37Y2.43
X4.37Y2.37
X4.37Y2.33
X4.37Y2.01
X4.37Y1.95
X4.37Y1.91
X4.37Y1.59
X4.37Y1.53
X4.37Y1.49
X4.37Y1.17
X4.37Y1.11
X4.37Y1.07
X4.37Y0.75
X4.37Y0.69
X4.37Y0.65
X4.38Y4.41
X4.38Y4.19
X4.39Y4.07
X4.39Y3.65
X4.39Y3.23
X4.39Y2.81
X4.39Y2.39
X4.39Y1.97
X4.39Y1.55
X4.39Y1.13
X4.39Y0.71
X4.41Y4.19
X4.41Y4.01
X4.41Y3.77
X4.41Y3.59
X4.41Y3.35
X4.41Y3.17
X4.41Y2.93
X4.41Y2.75
X4.41Y2.51
X4.41Y2.33
X4.41Y2.09
X4.41Y1.91
X4.41Y1.67
X4.41Y1.49
X4.41Y1.25
X4.41Y1.07
X4.41Y0.83
X4.41Y0.65
X4.43Y4.07
X4.43Y3.93
X4.43Y3.65
X4.43Y3.51
X4.43Y3.23
X4.43Y3.09
X4.43Y2.81
X4.43Y2.67
X4.43Y2.39
X4.43Y2.25
X4.43Y1.97
X4.43Y1.83
X4.43Y1.55
X4.43Y1.41
X4.43Y1.13
X4.43Y0.99
X4.43Y0.71
X4.43Y0.57
X4.45Y3.85
X4.45Y3.43
X4.45Y3.01
X4.45Y2.59
X4.45Y2.17
X4.45Y1.75
X4.45Y1.33
X4.45Y0.91
X4.45Y0.49
X4.55Y4.37
X4.55Y4.01
X4.55Y3.59
X4.55Y3.17
X4.55Y2.75
X4.55Y2.33
X4.55Y1.91
X4.55Y1.49
X4.55Y1.07
X4.55Y0.65
X4.59Y4.07
X4.59Y4.03
X4.59Y3.65
X4.59Y3.61
X4.59Y3.23
X4.59Y3.19
X4.59Y2.81
X4.59Y2.77
X4.59Y2.39
X4.59Y2.35
X4.59Y1.97
X4.59Y1.93
X4.59Y1.55
X4.59Y1.51
X4.59Y1.13
X4.59Y1.09
X4.59Y0.71
X4.59Y0.67
X4.61Y4.05
X4.61Y4.01
X4.61Y3.63
X4.61Y3.59
X4.61Y3.21
X4.61Y3.17
X4.61Y2.79
X4.61Y2.75
X4.61Y2.37
X4.61Y2.33
X4.61Y1.95
X4.61Y1.91
X4.61Y1.53
X4.61Y1.49
X4.61Y1.11
X4.61Y1.07
X4.61Y0.69
X4.61Y0.65
X4.63Y4.29
X4.63Y4.07
X4.63Y3.65
X4.63Y3.23
X4.63Y2.81
X4.63Y2.39
X4.63Y1.97
X4.63Y1.55
X4.63Y1.13
X4.63Y0.71
X4.65Y4.41
X4.65Y4.05
X4.65Y3.63
X4.65Y3.21
X4.65Y2.79
X4.65Y2.37
X4.65Y1.95
X4.65Y1.53
X4.65Y1.11
X4.65Y0.69
X4.67Y4.43
X4.67Y4.07
X4.67Y3.65
X4.67Y3.23
X4.67Y2.81
X4.67Y2.39
X4.67Y1.97
X4.67Y1.55
X4.67Y1.13
X4.67Y0.71
X4.69Y4.41
X4.69Y4.05
X4.69Y3.63
X4.69Y3.21
X4.69Y2.79
X4.69Y2.37
X4.69Y1.95
X4.69Y1.53
X4.69Y1.11
X4.69Y0.69
X4.71Y4.43
X4.71Y4.07
X4.71Y3.65
X4.71Y3.23
X4.71Y2.81
X4.71Y2.39
X4.71Y1.97
X4.71Y1.55
X4.71Y1.13
X4.71Y0.71
X4.73Y4.41
X4.73Y4.05
X4.73Y3.63
X4.73Y3.21
X4.73Y2.79
X4.73Y2.37
X4.73Y1.95
X4.73Y1.53
X4.73Y1.11
X4.73Y0.69
X4.75Y4.43
X4.75Y4.07
X4.75Y3.65
X4.75Y3.23
X4.75Y2.81
X4.75Y2.39
X4.75Y1.97
X4.75Y1.55
X4.75Y1.13
X4.75Y0.71
X4.77Y4.41
X4.77Y4.05
X4.77Y3.63
X4.77Y3.21
X4.77Y2.79
X4.77Y2.37
X4.77Y1.95
X4.77Y1.53
X4.77Y1.11
X4.77Y0.69
X4.79Y4.43
X4.79Y4.07
X4.79Y3.65
X4.79Y3.23
X4.79Y2.81
X4.79Y2.39
X4.79Y1.97
X4.79Y1.55
X4.79Y1.13
X4.79Y0.71
X4.81Y3.99
X4.81Y3.57
X4.81Y3.15
X4.81Y2.73
X4.81Y2.31
X4.81Y1.89
X4.81Y1.47
X4.81Y1.05
X4.81Y0.63
X4.83Y4.27
X4.83Y4.03
X4.83Y3.61
X4.83Y3.19
X4.83Y2.77
X4.83Y2.35
X4.83Y1.93
X4.83Y1.51
X4.83Y1.09
X4.83Y0.67
X4.85Y4.25
X4.85Y4.01
X4.85Y3.59
X4.85Y3.17
X4.85Y2.75
X4.85Y2.33
X4.85Y1.91
X4.85Y1.49
X4.85Y1.07
X4.85Y0.65
X4.89Y4.07
X4.89Y4.01
X4.89Y3.65
X4.89Y3.59
X4.89Y3.23
X4.89Y3.17
X4.89Y2.81
X4.89Y2.75
X4.89Y2.39
X4.89Y2.33
X4.89Y1.97
X4.89Y1.91
X4.89Y1.55
X4.89Y1.49
X4.89Y1.13
X4.89Y1.07
X4.89Y0.71
X4.89Y0.65
X4.9608Y4.13
X4.9608Y3.71
X4.9608Y3.29
X4.9608Y2.87
X4.9608Y2.45
X4.9608Y2.03
X4.9608Y1.61
X4.9608Y1.19
X4.9608Y0.77
X4.9638Y3.95
X4.9638Y3.53
X4.9638Y3.11
X4.9638Y2.69
X4.9638Y2.27
X4.9638Y1.85
X4.9638Y1.43
X4.9638Y1.01
X4.9638Y0.59
X4.965Y4.655
X4.985Y4.725
X5.01Y4.07
X5.01Y4.01
X5.01Y3.65
X5.01Y3.59
X5.01Y3.23
X5.01Y3.17
X5.01Y2.81
X5.01Y2.75
X5.01Y2.39
X5.01Y2.33
X5.01Y1.97
X5.01Y1.91
X5.01Y1.55
X5.01Y1.49
X5.01Y1.13
X5.01Y1.07
X5.01Y0.71
X5.01Y0.65
X5.03Y4.325
X5.05Y4.07
X5.05Y4.01
X5.05Y3.65
X5.05Y3.59
X5.05Y3.23
X5.05Y3.17
X5.05Y2.81
X5.05Y2.75
X5.05Y2.39
X5.05Y2.33
X5.05Y1.97
X5.05Y1.91
X5.05Y1.55
X5.05Y1.49
X5.05Y1.13
X5.05Y1.07
X5.05Y0.71
X5.05Y0.65
X5.055Y4.21
X5.055Y3.79
X5.055Y3.37
X5.055Y2.95
X5.055Y2.53
X5.055Y2.11
X5.055Y1.69
X5.055Y1.27
X5.055Y0.85
X5.065Y3.87
X5.065Y3.45
X5.065Y3.03
X5.065Y2.61
X5.065Y2.19
X5.065Y1.77
X5.065Y1.35
X5.065Y0.93
X5.065Y0.51
X5.23Y4.03
X5.23Y3.61
X5.23Y3.19
X5.23Y2.77
X5.23Y2.35
X5.23Y1.93
X5.23Y1.51
X5.23Y1.09
X5.23Y0.67
X5.25Y4.13
X5.25Y4.05
X5.25Y4.01
X5.25Y3.71
X5.25Y3.63
X5.25Y3.59
X5.25Y3.29
X5.25Y3.21
X5.25Y3.17
X5.25Y2.87
X5.25Y2.79
X5.25Y2.75
X5.25Y2.45
X5.25Y2.37
X5.25Y2.33
X5.25Y2.03
X5.25Y1.95
X5.25Y1.91
X5.25Y1.61
X5.25Y1.53
X5.25Y1.49
X5.25Y1.19
X5.25Y1.11
X5.25Y1.07
X5.25Y0.77
X5.25Y0.69
X5.25Y0.65
X5.27Y4.07
X5.27Y3.65
X5.27Y3.23
X5.27Y2.81
X5.27Y2.39
X5.27Y1.97
X5.27Y1.55
X5.27Y1.13
X5.27Y0.71
X5.29Y4.21
X5.29Y4.01
X5.29Y3.79
X5.29Y3.59
X5.29Y3.37
X5.29Y3.17
X5.29Y2.95
X5.29Y2.75
X5.29Y2.53
X5.29Y2.33
X5.29Y2.11
X5.29Y1.91
X5.29Y1.69
X5.29Y1.49
X5.29Y1.27
X5.29Y1.07
X5.29Y0.85
X5.29Y0.65
X5.31Y4.07
X5.31Y3.95
X5.31Y3.65
X5.31Y3.53
X5.31Y3.23
X5.31Y3.11
X5.31Y2.81
X5.31Y2.69
X5.31Y2.39
X5.31Y2.27
X5.31Y1.97
X5.31Y1.85
X5.31Y1.55
X5.31Y1.43
X5.31Y1.13
X5.31Y1.01
X5.31Y0.71
X5.31Y0.59
X5.33Y3.87
X5.33Y3.45
X5.33Y3.03
X5.33Y2.61
X5.33Y2.19
X5.33Y1.77
X5.33Y1.35
X5.33Y0.93
X5.33Y0.51
X5.43Y4.375
X5.43Y4.01
X5.43Y3.59
X5.43Y3.17
X5.43Y2.75
X5.43Y2.33
X5.43Y1.91
X5.43Y1.49
X5.43Y1.07
X5.43Y0.65
X5.47Y4.07
X5.47Y4.03
X5.47Y3.65
X5.47Y3.61
X5.47Y3.23
X5.47Y3.19
X5.47Y2.81
X5.47Y2.77
X5.47Y2.39
X5.47Y2.35
X5.47Y1.97
X5.47Y1.93
X5.47Y1.55
X5.47Y1.51
X5.47Y1.13
X5.47Y1.09
X5.47Y0.71
X5.47Y0.67
X5.49Y4.05
X5.49Y4.01
X5.49Y3.63
X5.49Y3.59
X5.49Y3.21
X5.49Y3.17
X5.49Y2.79
X5.49Y2.75
X5.49Y2.37
X5.49Y2.33
X5.49Y1.95
X5.49Y1.91
X5.49Y1.53
X5.49Y1.49
X5.49Y1.11
X5.49Y1.07
X5.49Y0.69
X5.49Y0.65
X5.51Y4.32
X5.51Y4.07
X5.51Y3.65
X5.51Y3.23
X5.51Y2.81
X5.51Y2.39
X5.51Y1.97
X5.51Y1.55
X5.51Y1.13
X5.51Y0.71
X5.53Y4.445
X5.53Y4.05
X5.53Y3.63
X5.53Y3.21
X5.53Y2.79
X5.53Y2.37
X5.53Y1.95
X5.53Y1.53
X5.53Y1.11
X5.53Y0.69
X5.55Y4.465
X5.55Y4.07
X5.55Y3.65
X5.55Y3.23
X5.55Y2.81
X5.55Y2.39
X5.55Y1.97
X5.55Y1.55
X5.55Y1.13
X5.55Y0.71
X5.57Y4.445
X5.57Y4.05
X5.57Y3.63
X5.57Y3.21
X5.57Y2.79
X5.57Y2.37
X5.57Y1.95
X5.57Y1.53
X5.57Y1.11
X5.57Y0.69
X5.59Y4.48
X5.59Y4.07
X5.59Y3.65
X5.59Y3.23
X5.59Y2.81
X5.59Y2.39
X5.59Y1.97
X5.59Y1.55
X5.59Y1.13
X5.59Y0.71
X5.61Y4.46
X5.61Y4.05
X5.61Y3.63
X5.61Y3.21
X5.61Y2.79
X5.61Y2.37
X5.61Y1.95
X5.61Y1.53
X5.61Y1.11
X5.61Y0.69
X5.63Y4.48
X5.63Y4.07
X5.63Y3.65
X5.63Y3.23
X5.63Y2.81
X5.63Y2.39
X5.63Y1.97
X5.63Y1.55
X5.63Y1.13
X5.63Y0.71
X5.65Y4.46
X5.65Y4.05
X5.65Y3.63
X5.65Y3.21
X5.65Y2.79
X5.65Y2.37
X5.65Y1.95
X5.65Y1.53
X5.65Y1.11
X5.65Y0.69
X5.67Y4.485
X5.67Y4.07
X5.67Y3.65
X5.67Y3.23
X5.67Y2.81
X5.67Y2.39
X5.67Y1.97
X5.67Y1.55
X5.67Y1.13
X5.67Y0.71
X5.69Y3.99
X5.69Y3.57
X5.69Y3.15
X5.69Y2.73
X5.69Y2.31
X5.69Y1.89
X5.69Y1.47
X5.69Y1.05
X5.69Y0.63
X5.71Y4.295
X5.71Y4.03
X5.71Y3.61
X5.71Y3.19
X5.71Y2.77
X5.71Y2.35
X5.71Y1.93
X5.71Y1.51
X5.71Y1.09
X5.71Y0.67
X5.73Y4.275
X5.73Y4.01
X5.73Y3.59
X5.73Y3.17
X5.73Y2.75
X5.73Y2.33
X5.73Y1.91
X5.73Y1.49
X5.73Y1.07
X5.73Y0.65
X5.77Y4.07
X5.77Y4.01
X5.77Y3.65
X5.77Y3.59
X5.77Y3.23
X5.77Y3.17
X5.77Y2.81
X5.77Y2.75
X5.77Y2.39
X5.77Y2.33
X5.77Y1.97
X5.77Y1.91
X5.77Y1.55
X5.77Y1.49
X5.77Y1.13
X5.77Y1.07
X5.77Y0.71
X5.77Y0.65
X5.8408Y4.15
X5.8408Y3.73
X5.8408Y3.31
X5.8408Y2.89
X5.8408Y2.47
X5.8408Y2.05
X5.8408Y1.63
X5.8408Y1.21
X5.8408Y0.79
X5.85Y3.97
X5.85Y3.55
X5.85Y3.13
X5.85Y2.71
X5.85Y2.29
X5.85Y1.87
X5.85Y1.45
X5.85Y1.03
X5.85Y0.61
X5.89Y4.07
X5.89Y4.01
X5.89Y3.65
X5.89Y3.59
X5.89Y3.23
X5.89Y3.17
X5.89Y2.81
X5.89Y2.75
X5.89Y2.39
X5.89Y2.33
X5.89Y1.97
X5.89Y1.91
X5.89Y1.55
X5.89Y1.49
X5.89Y1.13
X5.89Y1.07
X5.89Y0.71
X5.89Y0.65
X5.91Y4.3657
X5.93Y4.07
X5.93Y4.01
X5.93Y3.65
X5.93Y3.59
X5.93Y3.23
X5.93Y3.17
X5.93Y2.81
X5.93Y2.75
X5.93Y2.39
X5.93Y2.33
X5.93Y1.97
X5.93Y1.91
X5.93Y1.55
X5.93Y1.49
X5.93Y1.13
X5.93Y1.07
X5.93Y0.71
X5.93Y0.65
X5.945Y3.89
X5.945Y3.47
X5.945Y3.05
X5.945Y2.63
X5.945Y2.21
X5.945Y1.79
X5.945Y1.37
X5.945Y0.95
X5.945Y0.53
X5.9499Y4.2299
X5.9499Y3.8099
X5.9499Y3.3899
X5.9499Y2.9699
X5.9499Y2.5499
X5.9499Y2.1299
X5.9499Y1.7099
X5.9499Y1.2899
X5.9499Y0.8699
X6.11Y4.03
X6.11Y3.61
X6.11Y3.19
X6.11Y2.77
X6.11Y2.35
X6.11Y1.93
X6.11Y1.51
X6.11Y1.09
X6.11Y0.67
X6.13Y4.05
X6.13Y4.01
X6.13Y3.63
X6.13Y3.59
X6.13Y3.21
X6.13Y3.17
X6.13Y2.79
X6.13Y2.75
X6.13Y2.37
X6.13Y2.33
X6.13Y1.95
X6.13Y1.91
X6.13Y1.53
X6.13Y1.49
X6.13Y1.11
X6.13Y1.07
X6.13Y0.69
X6.13Y0.65
X6.15Y4.15
X6.15Y4.07
X6.15Y3.73
X6.15Y3.65
X6.15Y3.31
X6.15Y3.23
X6.15Y2.89
X6.15Y2.81
X6.15Y2.47
X6.15Y2.39
X6.15Y2.05
X6.15Y1.97
X6.15Y1.63
X6.15Y1.55
X6.15Y1.21
X6.15Y1.13
X6.15Y0.79
X6.15Y0.71
X6.17Y4.23
X6.17Y4.01
X6.17Y3.81
X6.17Y3.59
X6.17Y3.39
X6.17Y3.17
X6.17Y2.97
X6.17Y2.75
X6.17Y2.55
X6.17Y2.33
X6.17Y2.13
X6.17Y1.91
X6.17Y1.71
X6.17Y1.49
X6.17Y1.29
X6.17Y1.07
X6.17Y0.87
X6.17Y0.65
X6.19Y4.07
X6.19Y3.97
X6.19Y3.65
X6.19Y3.55
X6.19Y3.23
X6.19Y3.13
X6.19Y2.81
X6.19Y2.71
X6.19Y2.39
X6.19Y2.29
X6.19Y1.97
X6.19Y1.87
X6.19Y1.55
X6.19Y1.45
X6.19Y1.13
X6.19Y1.03
X6.19Y0.71
X6.19Y0.61
X6.21Y3.89
X6.21Y3.47
X6.21Y3.05
X6.21Y2.63
X6.21Y2.21
X6.21Y1.79
X6.21Y1.37
X6.21Y0.95
X6.21Y0.53
X6.31Y4.405
X6.31Y4.01
X6.31Y3.59
X6.31Y3.17
X6.31Y2.75
X6.31Y2.33
X6.31Y1.91
X6.31Y1.49
X6.31Y1.07
X6.31Y0.65
X6.35Y4.07
X6.35Y4.03
X6.35Y3.65
X6.35Y3.61
X6.35Y3.23
X6.35Y3.19
X6.35Y2.81
X6.35Y2.77
X6.35Y2.39
X6.35Y2.35
X6.35Y1.97
X6.35Y1.93
X6.35Y1.55
X6.35Y1.51
X6.35Y1.13
X6.35Y1.09
X6.35Y0.71
X6.35Y0.67
X6.37Y4.05
X6.37Y4.01
X6.37Y3.63
X6.37Y3.59
X6.37Y3.21
X6.37Y3.17
X6.37Y2.79
X6.37Y2.75
X6.37Y2.37
X6.37Y2.33
X6.37Y1.95
X6.37Y1.91
X6.37Y1.53
X6.37Y1.49
X6.37Y1.11
X6.37Y1.07
X6.37Y0.69
X6.37Y0.65
X6.39Y4.32
X6.39Y4.07
X6.39Y3.65
X6.39Y3.23
X6.39Y2.81
X6.39Y2.39
X6.39Y1.97
X6.39Y1.55
X6.39Y1.13
X6.39Y0.71
X6.41Y4.34
X6.41Y4.05
X6.41Y3.63
X6.41Y3.21
X6.41Y2.79
X6.41Y2.37
X6.41Y1.95
X6.41Y1.53
X6.41Y1.11
X6.41Y0.69
X6.43Y4.365
X6.43Y4.07
X6.43Y3.65
X6.43Y3.23
X6.43Y2.81
X6.43Y2.39
X6.43Y1.97
X6.43Y1.55
X6.43Y1.13
X6.43Y0.71
X6.45Y4.34
X6.45Y4.05
X6.45Y3.63
X6.45Y3.21
X6.45Y2.79
X6.45Y2.37
X6.45Y1.95
X6.45Y1.53
X6.45Y1.11
X6.45Y0.69
X6.47Y4.37
X6.47Y4.07
X6.47Y3.65
X6.47Y3.23
X6.47Y2.81
X6.47Y2.39
X6.47Y1.97
X6.47Y1.55
X6.47Y1.13
X6.47Y0.71
X6.49Y4.35
X6.49Y4.05
X6.49Y3.63
X6.49Y3.21
X6.49Y2.79
X6.49Y2.37
X6.49Y1.95
X6.49Y1.53
X6.49Y1.11
X6.49Y0.69
X6.51Y4.375
X6.51Y4.07
X6.51Y3.65
X6.51Y3.23
X6.51Y2.81
X6.51Y2.39
X6.51Y1.97
X6.51Y1.55
X6.51Y1.13
X6.51Y0.71
X6.53Y4.355
X6.53Y4.05
X6.53Y3.63
X6.53Y3.21
X6.53Y2.79
X6.53Y2.37
X6.53Y1.95
X6.53Y1.53
X6.53Y1.11
X6.53Y0.69
X6.55Y4.375
X6.55Y4.07
X6.55Y3.65
X6.55Y3.23
X6.55Y2.81
X6.55Y2.39
X6.55Y1.97
X6.55Y1.55
X6.55Y1.13
X6.55Y0.71
X6.57Y3.99
X6.57Y3.57
X6.57Y3.15
X6.57Y2.73
X6.57Y2.31
X6.57Y1.89
X6.57Y1.47
X6.57Y1.05
X6.57Y0.63
X6.59Y4.295
X6.59Y4.03
X6.59Y3.61
X6.59Y3.19
X6.59Y2.77
X6.59Y2.35
X6.59Y1.93
X6.59Y1.51
X6.59Y1.09
X6.59Y0.67
X6.61Y4.275
X6.61Y4.01
X6.61Y3.59
X6.61Y3.17
X6.61Y2.75
X6.61Y2.33
X6.61Y1.91
X6.61Y1.49
X6.61Y1.07
X6.61Y0.65
X6.65Y4.07
X6.65Y4.01
X6.65Y3.65
X6.65Y3.59
X6.65Y3.23
X6.65Y3.17
X6.65Y2.81
X6.65Y2.75
X6.65Y2.39
X6.65Y2.33
X6.65Y1.97
X6.65Y1.91
X6.65Y1.55
X6.65Y1.49
X6.65Y1.13
X6.65Y1.07
X6.65Y0.71
X6.65Y0.65
X6.67Y4.23
X6.67Y4.19
X6.67Y4.15
X6.67Y4.11
X6.67Y3.97
X6.67Y3.93
X6.67Y3.89
X6.67Y3.85
X6.67Y3.81
X6.67Y3.77
X6.67Y3.73
X6.67Y3.69
X6.67Y3.55
X6.67Y3.51
X6.67Y3.47
X6.67Y3.43
X6.67Y3.39
X6.67Y3.35
X6.67Y3.31
X6.67Y3.27
X6.67Y3.13
X6.67Y3.09
X6.67Y3.05
X6.67Y3.01
X6.67Y2.97
X6.67Y2.93
X6.67Y2.89
X6.67Y2.85
X6.67Y2.71
X6.67Y2.67
X6.67Y2.63
X6.67Y2.59
X6.67Y2.55
X6.67Y2.51
X6.67Y2.47
X6.67Y2.43
X6.67Y2.29
X6.67Y2.25
X6.67Y2.21
X6.67Y2.17
X6.67Y2.13
X6.67Y2.09
X6.67Y2.05
X6.67Y2.01
X6.67Y1.87
X6.67Y1.83
X6.67Y1.79
X6.67Y1.75
X6.67Y1.71
X6.67Y1.67
X6.67Y1.63
X6.67Y1.59
X6.67Y1.45
X6.67Y1.41
X6.67Y1.37
X6.67Y1.33
X6.67Y1.29
X6.67Y1.25
X6.67Y1.21
X6.67Y1.17
X6.67Y1.03
X6.67Y0.99
X6.67Y0.95
X6.67Y0.91
X6.67Y0.87
X6.67Y0.83
X6.67Y0.79
X6.67Y0.75
X6.67Y0.61
X6.67Y0.57
X6.67Y0.53
X6.67Y0.49
X6.69Y4.21
X6.69Y4.17
X6.69Y4.13
X6.69Y4.09
X6.69Y3.99
X6.69Y3.95
X6.69Y3.91
X6.69Y3.87
X6.69Y3.83
X6.69Y3.79
X6.69Y3.75
X6.69Y3.71
X6.69Y3.67
X6.69Y3.57
X6.69Y3.53
X6.69Y3.49
X6.69Y3.45
X6.69Y3.41
X6.69Y3.37
X6.69Y3.33
X6.69Y3.29
X6.69Y3.25
X6.69Y3.15
X6.69Y3.11
X6.69Y3.07
X6.69Y3.03
X6.69Y2.99
X6.69Y2.95
X6.69Y2.91
X6.69Y2.87
X6.69Y2.83
X6.69Y2.73
X6.69Y2.69
X6.69Y2.65
X6.69Y2.61
X6.69Y2.57
X6.69Y2.53
X6.69Y2.49
X6.69Y2.45
X6.69Y2.41
X6.69Y2.31
X6.69Y2.27
X6.69Y2.23
X6.69Y2.19
X6.69Y2.15
X6.69Y2.11
X6.69Y2.07
X6.69Y2.03
X6.69Y1.99
X6.69Y1.89
X6.69Y1.85
X6.69Y1.81
X6.69Y1.77
X6.69Y1.73
X6.69Y1.69
X6.69Y1.65
X6.69Y1.61
X6.69Y1.57
X6.69Y1.47
X6.69Y1.43
X6.69Y1.39
X6.69Y1.35
X6.69Y1.31
X6.69Y1.27
X6.69Y1.23
X6.69Y1.19
X6.69Y1.15
X6.69Y1.05
X6.69Y1.01
X6.69Y0.97
X6.69Y0.93
X6.69Y0.89
X6.69Y0.85
X6.69Y0.81
X6.69Y0.77
X6.69Y0.73
X6.69Y0.63
X6.69Y0.59
X6.69Y0.55
X6.69Y0.51
X6.69Y0.47
X6.98Y1.9
X6.985Y1.335
X6.995Y1.675
X6.995Y1.175
X7.0Y2.05
X7.0Y1.975
X7.0Y1.825
X7.0Y1.775
X7.0Y1.525
X7.0Y1.425
X7.0Y1.275
X7.0Y1.225
X7.0Y1.025
X7.0Y0.975
X7.0Y0.875
X7.0Y0.825
X7.005Y2.225
X7.005Y2.125
X7.01Y1.625
X7.05Y2.225
X7.05Y2.125
X7.05Y2.035
X7.05Y1.975
X7.05Y1.925
X7.05Y1.825
X7.05Y1.735
X7.05Y1.675
X7.05Y1.585
X7.05Y1.525
X7.05Y1.425
X7.05Y1.375
X7.05Y1.275
X7.05Y1.225
X7.05Y1.12
X7.05Y1.025
X7.05Y0.975
X7.05Y0.925
X7.05Y0.875
X7.06Y2.375
X7.09Y4.055
X7.1Y2.575
X7.1Y2.525
X7.1Y2.425
X7.1Y2.38
X7.1Y2.325
X7.1Y2.275
X7.1Y2.225
X7.1Y2.185
X7.1Y2.125
X7.1Y2.035
X7.1Y1.975
X7.1Y1.925
X7.1Y1.8825
X7.1Y1.825
X7.1Y1.775
X7.1Y1.735
X7.1Y1.675
X7.1Y1.625
X7.1Y1.585
X7.1Y1.525
X7.1Y1.425
X7.1Y1.375
X7.1Y1.275
X7.1Y1.225
X7.1Y1.175
X7.1Y1.025
X7.1Y0.975
X7.1Y0.875
X7.1Y0.825
X7.105Y4.02
X7.115Y2.74
X7.135Y3.98
X7.15Y3.95
X7.15Y2.625
X7.15Y2.575
X7.15Y2.475
X7.15Y2.425
X7.15Y2.375
X7.15Y2.325
X7.15Y2.275
X7.15Y2.225
X7.15Y2.125
X7.15Y2.035
X7.15Y1.975
X7.15Y1.885
X7.15Y1.825
X7.15Y1.775
X7.15Y1.675
X7.15Y1.625
X7.15Y1.525
X7.15Y1.425
X7.15Y1.375
X7.15Y1.275
X7.15Y1.225
X7.15Y1.125
X7.15Y1.025
X7.15Y0.975
X7.15Y0.925
X7.15Y0.825
X7.15Y0.715
X7.16Y3.92
X7.165Y3.885
X7.19Y3.835
X7.2Y2.575
X7.2Y2.525
X7.2Y2.425
X7.2Y2.375
X7.2Y2.275
X7.2Y2.225
X7.2Y2.185
X7.2Y2.125
X7.2Y2.07
X7.2Y2.035
X7.2Y1.975
X7.2Y1.925
X7.2Y1.825
X7.2Y1.775
X7.2Y1.725
X7.2Y1.675
X7.2Y1.625
X7.2Y1.585
X7.2Y1.525
X7.2Y1.425
X7.2Y1.375
X7.2Y1.275
X7.2Y1.225
X7.2Y1.175
X7.2Y1.025
X7.2Y0.975
X7.2Y0.825
X7.235Y2.74
X7.25Y2.675
X7.25Y2.48
X7.25Y2.375
X7.25Y2.225
X7.25Y2.125
X7.25Y2.075
X7.25Y1.975
X7.25Y1.925
X7.25Y1.825
X7.25Y1.675
X7.25Y1.625
X7.25Y1.525
X7.25Y1.425
X7.25Y1.375
X7.25Y1.275
X7.25Y1.225
X7.25Y1.125
X7.25Y1.075
X7.25Y1.025
X7.25Y0.925
X7.25Y0.825
X7.255Y1.775
X7.29Y2.74
X7.3Y2.625
X7.3Y2.425
X7.3Y2.375
X7.3Y2.325
X7.3Y2.275
X7.3Y2.175
X7.3Y2.075
X7.3Y0.825
X7.345Y1.53
X7.35Y2.275
X7.35Y2.125
X7.35Y2.075
X7.35Y1.725
X7.35Y1.675
X7.35Y1.625
X7.35Y1.425
X7.35Y1.375
X7.35Y0.715
X7.395Y1.83
X7.4Y2.075
X7.4Y2.025
X7.4Y1.78
X7.4Y1.625
X7.4Y1.53
X7.4Y1.43
X7.4Y1.38
X7.44Y2.75
X7.45Y2.275
X7.45Y2.23
X7.455Y0.71
X7.515Y2.025
X7.515Y1.055
X7.515Y0.825
X7.52Y1.855
X7.52Y1.275
X7.6Y1.57
X7.6Y1.475
X7.6Y0.915
X7.6Y0.825
X7.725Y0.68
X7.76Y0.685
X7.795Y0.685
X7.8Y2.19
X7.81Y2.96
X7.815Y3.735
X7.82Y4.46
X7.825Y0.675
X7.84Y0.7
X7.87Y0.7
X7.885Y4.46
X7.885Y2.965
X7.9Y3.735
X7.9Y2.185
X7.9Y0.69
X7.93Y0.695
T2
X2.94Y4.7502
X2.94Y4.6502
T3
X0.31Y4.555
X0.31Y4.455
X0.31Y4.355
X0.31Y4.255
X0.31Y4.155
X0.31Y4.055
X0.31Y3.955
X0.31Y3.855
X0.31Y3.755
X0.31Y3.655
X0.31Y3.555
X1.13Y4.555
X1.13Y4.455
X1.13Y4.355
X1.13Y4.255
X1.13Y4.155
X1.13Y4.055
X1.13Y3.955
X1.13Y3.855
X1.13Y3.755
X1.13Y3.655
X1.13Y3.555
X1.295Y4.555
X1.295Y4.455
X1.295Y4.355
X1.295Y4.255
X1.295Y4.155
X1.295Y4.055
X1.295Y3.955
X1.295Y3.855
X1.295Y3.755
X1.295Y3.655
X1.295Y3.555
X1.75Y4.195
X1.75Y4.095
X1.85Y4.195
X1.85Y4.095
X1.95Y4.195
X1.95Y4.095
X2.05Y4.195
X2.05Y4.095
X2.15Y4.195
X2.15Y4.095
X2.25Y4.195
X2.25Y4.095
X2.35Y4.195
X2.35Y4.095
X2.45Y4.195
X2.45Y4.095
X5.24Y4.7252
X5.24Y4.6252
X8.13Y1.56
X8.13Y1.46
X8.13Y1.36
X8.13Y1.26
X8.13Y1.16
X8.13Y1.06
X8.18Y4.84
X8.18Y4.74
X8.18Y4.64
X8.18Y4.54
X8.18Y4.44
X8.18Y4.34
X8.18Y4.1
X8.18Y4.0
X8.18Y3.9
X8.18Y3.8
X8.18Y3.7
X8.18Y3.6
X8.18Y3.34
X8.18Y3.24
X8.18Y3.14
X8.18Y3.04
X8.18Y2.94
X8.18Y2.84
X8.18Y2.58
X8.18Y2.48
X8.18Y2.38
X8.18Y2.28
X8.18Y2.18
X8.18Y2.08
X8.28Y4.84
X8.28Y4.74
X8.28Y4.64
X8.28Y4.54
X8.28Y4.44
X8.28Y4.34
X8.28Y4.1
X8.28Y4.0
X8.28Y3.9
X8.28Y3.8
X8.28Y3.7
X8.28Y3.6
X8.28Y3.34
X8.28Y3.24
X8.28Y3.14
X8.28Y3.04
X8.28Y2.94
X8.28Y2.84
X8.28Y2.58
X8.28Y2.48
X8.28Y2.38
X8.28Y2.28
X8.28Y2.18
X8.28Y2.08
T4
X3.725Y4.695
X4.115Y4.695
X4.495Y4.695
T5
X0.745Y4.775
X0.745Y4.575
X0.745Y4.185
X0.745Y3.985
X0.745Y3.585
X0.745Y3.385
X0.945Y4.775
X0.945Y4.575
X0.945Y4.185
X0.945Y3.985
X0.945Y3.585
X0.945Y3.385
T6
X3.625Y4.795
X3.625Y4.595
X3.825Y4.795
X3.825Y4.595
X4.015Y4.795
X4.015Y4.595
X4.215Y4.795
X4.215Y4.595
X4.395Y4.795
X4.395Y4.595
X4.595Y4.795
X4.595Y4.595
T7
X0.766Y2.61
X0.766Y1.03
X1.2621Y2.61
X1.2621Y1.03
X1.7581Y2.61
X1.7581Y1.03
X2.2542Y2.61
X2.2542Y1.03
T8
X7.1299Y0.655
X7.25Y2.7959
T0
M30
